SplineFontDB: 3.2
FontName: Taygetan
FullName: Taygetan
FamilyName: Taygetan
Weight: Regular
Copyright: Copyright (c) 2025, Zarek
UComments: "2025-12-30: Created with FontForge (http://fontforge.org)"
Version: 001.000
ItalicAngle: -44.9
UnderlinePosition: -100
UnderlineWidth: 50
Ascent: 800
Descent: 200
InvalidEm: 0
LayerCount: 2
Layer: 0 0 "Back" 1
Layer: 1 0 "Fore" 0
XUID: [1021 178 -137159847 1178]
FSType: 0
OS2Version: 0
OS2_WeightWidthSlopeOnly: 0
OS2_UseTypoMetrics: 1
CreationTime: 1767141620
ModificationTime: 1767152695
PfmFamily: 17
TTFWeight: 400
TTFWidth: 5
LineGap: 90
VLineGap: 0
OS2TypoAscent: 0
OS2TypoAOffset: 1
OS2TypoDescent: 0
OS2TypoDOffset: 1
OS2TypoLinegap: 90
OS2WinAscent: 0
OS2WinAOffset: 1
OS2WinDescent: 0
OS2WinDOffset: 1
HheadAscent: 0
HheadAOffset: 1
HheadDescent: 0
HheadDOffset: 1
OS2Vendor: 'PfEd'
MarkAttachClasses: 1
DEI: 91125
LangName: 1033
Encoding: ISO8859-1
UnicodeInterp: none
NameList: AGL For New Fonts
DisplaySize: -48
AntiAlias: 1
FitToEm: 0
WidthSeparation: 150
WinInfo: 64 16 4
BeginPrivate: 0
EndPrivate
TeXData: 1 0 0 346030 173015 115343 412090 1048576 115343 783286 444596 497025 792723 393216 433062 380633 303038 157286 324010 404750 52429 2506097 1059062 262144
BeginChars: 256 63

StartChar: A
Encoding: 65 65 0
Width: 1000
Flags: H
LayerCount: 2
Fore
SplineSet
235.99609375 535.99609375 m 0
 235.99609375 560.865234375 256.134765625 580.99609375 280.99609375 580.99609375 c 0
 305.8671875 580.99609375 325.99609375 560.8671875 325.99609375 535.99609375 c 0
 325.99609375 511.134765625 305.865234375 490.99609375 280.99609375 490.99609375 c 0
 256.13671875 490.99609375 235.99609375 511.13671875 235.99609375 535.99609375 c 0
205.99609375 535.99609375 m 0
 205.99609375 494.5859375 239.5859375 460.99609375 280.99609375 460.99609375 c 0
 322.416015625 460.99609375 355.99609375 494.587890625 355.99609375 535.99609375 c 0
 355.99609375 577.4140625 322.4140625 610.99609375 280.99609375 610.99609375 c 0
 239.587890625 610.99609375 205.99609375 577.416015625 205.99609375 535.99609375 c 0
674.00390625 64.00390625 m 0
 674.00390625 88.865234375 694.134765625 109.00390625 719.00390625 109.00390625 c 0
 743.86328125 109.00390625 764.00390625 88.86328125 764.00390625 64.00390625 c 0
 764.00390625 39.134765625 743.865234375 19.00390625 719.00390625 19.00390625 c 0
 694.1328125 19.00390625 674.00390625 39.1328125 674.00390625 64.00390625 c 0
644.00390625 64.00390625 m 0
 644.00390625 22.5859375 677.5859375 -10.99609375 719.00390625 -10.99609375 c 0
 760.412109375 -10.99609375 794.00390625 22.583984375 794.00390625 64.00390625 c 0
 794.00390625 105.4140625 760.4140625 139.00390625 719.00390625 139.00390625 c 0
 677.583984375 139.00390625 644.00390625 105.412109375 644.00390625 64.00390625 c 0
256.909179688 498.059570312 m 1
 239.0625 473.950195312 l 1
 751.088867188 94.9384765625 l 1
 768.935546875 119.047851562 l 1
 256.909179688 498.059570312 l 1
810.99609375 505.99609375 m 0
 810.99609375 530.865234375 831.134765625 550.99609375 855.99609375 550.99609375 c 0
 880.8671875 550.99609375 900.99609375 530.8671875 900.99609375 505.99609375 c 0
 900.99609375 481.134765625 880.865234375 460.99609375 855.99609375 460.99609375 c 0
 831.13671875 460.99609375 810.99609375 481.13671875 810.99609375 505.99609375 c 0
780.99609375 505.99609375 m 0
 780.99609375 464.5859375 814.5859375 430.99609375 855.99609375 430.99609375 c 0
 897.416015625 430.99609375 930.99609375 464.587890625 930.99609375 505.99609375 c 0
 930.99609375 547.4140625 897.4140625 580.99609375 855.99609375 580.99609375 c 0
 814.587890625 580.99609375 780.99609375 547.416015625 780.99609375 505.99609375 c 0
542.001953125 312.001953125 m 0
 542.001953125 336.861328125 562.142578125 357.001953125 587.001953125 357.001953125 c 0
 611.861328125 357.001953125 632.001953125 336.861328125 632.001953125 312.001953125 c 0
 632.001953125 287.142578125 611.861328125 267.001953125 587.001953125 267.001953125 c 0
 562.142578125 267.001953125 542.001953125 287.142578125 542.001953125 312.001953125 c 0
512.001953125 312.001953125 m 0
 512.001953125 270.591796875 545.591796875 237.001953125 587.001953125 237.001953125 c 0
 628.412109375 237.001953125 662.001953125 270.591796875 662.001953125 312.001953125 c 0
 662.001953125 353.412109375 628.412109375 387.001953125 587.001953125 387.001953125 c 0
 545.591796875 387.001953125 512.001953125 353.412109375 512.001953125 312.001953125 c 0
630.439453125 297.205078125 m 1
 630.439453125 297.205078125 655.537109375 280.772460938 655.556640625 280.802734375 c 0
 820.556640625 532.794921875 820.556640625 532.794921875 820.556640625 532.794921875 c 1
 820.556640625 532.794921875 795.458984375 549.227539062 795.439453125 549.197265625 c 0
 630.439453125 297.205078125 630.439453125 297.205078125 630.439453125 297.205078125 c 1
367.998046875 287.998046875 m 0
 367.998046875 312.857421875 388.138671875 332.998046875 412.998046875 332.998046875 c 0
 437.857421875 332.998046875 457.998046875 312.857421875 457.998046875 287.998046875 c 0
 457.998046875 263.138671875 437.857421875 242.998046875 412.998046875 242.998046875 c 0
 388.138671875 242.998046875 367.998046875 263.138671875 367.998046875 287.998046875 c 0
337.998046875 287.998046875 m 0
 337.998046875 246.587890625 371.587890625 212.998046875 412.998046875 212.998046875 c 0
 454.408203125 212.998046875 487.998046875 246.587890625 487.998046875 287.998046875 c 0
 487.998046875 329.408203125 454.408203125 362.998046875 412.998046875 362.998046875 c 0
 371.587890625 362.998046875 337.998046875 329.408203125 337.998046875 287.998046875 c 0
99.00390625 94.00390625 m 0
 99.00390625 118.865234375 119.134765625 139.00390625 144.00390625 139.00390625 c 0
 168.86328125 139.00390625 189.00390625 118.86328125 189.00390625 94.00390625 c 0
 189.00390625 69.134765625 168.865234375 49.00390625 144.00390625 49.00390625 c 0
 119.1328125 49.00390625 99.00390625 69.1328125 99.00390625 94.00390625 c 0
69.00390625 94.00390625 m 0
 69.00390625 52.5859375 102.5859375 19.00390625 144.00390625 19.00390625 c 0
 185.412109375 19.00390625 219.00390625 52.583984375 219.00390625 94.00390625 c 0
 219.00390625 135.4140625 185.4140625 169.00390625 144.00390625 169.00390625 c 0
 102.583984375 169.00390625 69.00390625 135.412109375 69.00390625 94.00390625 c 0
186.4453125 79.197265625 m 1
 186.4453125 79.197265625 211.54296875 62.7646484375 211.5625 62.794921875 c 0
 376.5625 314.796875 376.5625 314.796875 376.5625 314.796875 c 2
 376.5625 314.796875 351.46484375 331.229492188 351.4453125 331.19921875 c 0
 186.4453125 79.197265625 186.4453125 79.197265625 186.4453125 79.197265625 c 1
EndSplineSet
Validated: 5
EndChar

StartChar: B
Encoding: 66 66 1
Width: 1000
Flags: H
LayerCount: 2
Fore
SplineSet
244.00390625 487.001953125 m 0
 244.00390625 511.86328125 264.134765625 532.001953125 289.00390625 532.001953125 c 0
 313.86328125 532.001953125 334.00390625 511.861328125 334.00390625 487.001953125 c 0
 334.00390625 462.142578125 313.86328125 442.001953125 289.00390625 442.001953125 c 0
 264.134765625 442.001953125 244.00390625 462.140625 244.00390625 487.001953125 c 0
214.00390625 487.001953125 m 0
 214.00390625 445.59375 247.583984375 412.001953125 289.00390625 412.001953125 c 0
 330.4140625 412.001953125 364.00390625 445.591796875 364.00390625 487.001953125 c 0
 364.00390625 528.412109375 330.4140625 562.001953125 289.00390625 562.001953125 c 0
 247.583984375 562.001953125 214.00390625 528.41015625 214.00390625 487.001953125 c 0
800 487.001953125 m 0
 800 511.861328125 820.140625 532.001953125 845 532.001953125 c 0
 869.859375 532.001953125 890 511.861328125 890 487.001953125 c 0
 890 462.142578125 869.859375 442.001953125 845 442.001953125 c 0
 820.140625 442.001953125 800 462.142578125 800 487.001953125 c 0
770 487.001953125 m 0
 770 445.591796875 803.58984375 412.001953125 845 412.001953125 c 0
 886.41015625 412.001953125 920 445.591796875 920 487.001953125 c 0
 920 528.412109375 886.41015625 562.001953125 845 562.001953125 c 0
 803.58984375 562.001953125 770 528.412109375 770 487.001953125 c 0
800 112.998046875 m 0
 800 137.857421875 820.140625 157.998046875 845 157.998046875 c 0
 869.859375 157.998046875 890 137.857421875 890 112.998046875 c 0
 890 88.138671875 869.859375 67.998046875 845 67.998046875 c 0
 820.140625 67.998046875 800 88.138671875 800 112.998046875 c 0
770 112.998046875 m 0
 770 71.587890625 803.58984375 37.998046875 845 37.998046875 c 0
 886.41015625 37.998046875 920 71.587890625 920 112.998046875 c 0
 920 154.408203125 886.41015625 187.998046875 845 187.998046875 c 0
 803.58984375 187.998046875 770 154.408203125 770 112.998046875 c 0
105.99609375 112.998046875 m 0
 105.99609375 137.857421875 126.13671875 157.998046875 150.99609375 157.998046875 c 0
 175.865234375 157.998046875 195.99609375 137.859375 195.99609375 112.998046875 c 0
 195.99609375 88.13671875 175.865234375 67.998046875 150.99609375 67.998046875 c 0
 126.13671875 67.998046875 105.99609375 88.138671875 105.99609375 112.998046875 c 0
75.99609375 112.998046875 m 0
 75.99609375 71.587890625 109.5859375 37.998046875 150.99609375 37.998046875 c 0
 192.416015625 37.998046875 225.99609375 71.58984375 225.99609375 112.998046875 c 0
 225.99609375 154.40625 192.416015625 187.998046875 150.99609375 187.998046875 c 0
 109.5859375 187.998046875 75.99609375 154.408203125 75.99609375 112.998046875 c 0
622.998046875 304.00390625 m 0
 622.998046875 328.86328125 643.138671875 349.00390625 667.998046875 349.00390625 c 0
 692.857421875 349.00390625 712.998046875 328.86328125 712.998046875 304.00390625 c 0
 712.998046875 279.134765625 692.859375 259.00390625 667.998046875 259.00390625 c 0
 643.13671875 259.00390625 622.998046875 279.134765625 622.998046875 304.00390625 c 0
592.998046875 304.00390625 m 0
 592.998046875 262.583984375 626.58984375 229.00390625 667.998046875 229.00390625 c 0
 709.40625 229.00390625 742.998046875 262.583984375 742.998046875 304.00390625 c 0
 742.998046875 345.4140625 709.408203125 379.00390625 667.998046875 379.00390625 c 0
 626.587890625 379.00390625 592.998046875 345.4140625 592.998046875 304.00390625 c 0
289.00390625 562.001953125 m 1
 289.00390625 532.001953125 l 1
 845 532.001953125 l 1
 845 562.001953125 l 1
 289.00390625 562.001953125 l 1
150.99609375 67.998046875 m 1
 150.99609375 37.998046875 l 1
 845 37.998046875 l 1
 845 67.998046875 l 1
 150.99609375 67.998046875 l 1
710.91015625 347.627929688 m 1
 727.067382812 322.352539062 l 1
 779.729492188 356.028320312 832.422851562 389.671875 885.065429688 423.368164062 c 1
 868.938476562 448.643554688 l 2
 868.938476562 448.643554688 710.940429688 347.647460938 710.91015625 347.627929688 c 1
726.952148438 275.71875 m 1
 726.952148438 275.71875 711.024414062 250.296875 711.055664062 250.27734375 c 0
 869.053710938 151.283203125 869.053710938 151.283203125 869.053710938 151.283203125 c 1
 869.053710938 151.283203125 884.981445312 176.705078125 884.950195312 176.724609375 c 0
 726.952148438 275.71875 726.952148438 275.71875 726.952148438 275.71875 c 1
EndSplineSet
Validated: 5
EndChar

StartChar: C
Encoding: 67 67 2
Width: 1000
Flags: H
LayerCount: 2
Fore
SplineSet
227.998046875 507.001953125 m 0
 227.998046875 531.861328125 248.138671875 552.001953125 272.998046875 552.001953125 c 0
 297.857421875 552.001953125 317.998046875 531.861328125 317.998046875 507.001953125 c 0
 317.998046875 482.142578125 297.857421875 462.001953125 272.998046875 462.001953125 c 0
 248.138671875 462.001953125 227.998046875 482.142578125 227.998046875 507.001953125 c 0
197.998046875 507.001953125 m 0
 197.998046875 465.591796875 231.587890625 432.001953125 272.998046875 432.001953125 c 0
 314.408203125 432.001953125 347.998046875 465.591796875 347.998046875 507.001953125 c 0
 347.998046875 548.412109375 314.408203125 582.001953125 272.998046875 582.001953125 c 0
 231.587890625 582.001953125 197.998046875 548.412109375 197.998046875 507.001953125 c 0
790.99609375 94.00390625 m 0
 790.99609375 118.86328125 811.13671875 139.00390625 835.99609375 139.00390625 c 0
 860.865234375 139.00390625 880.99609375 118.865234375 880.99609375 94.00390625 c 0
 880.99609375 69.1328125 860.8671875 49.00390625 835.99609375 49.00390625 c 0
 811.134765625 49.00390625 790.99609375 69.134765625 790.99609375 94.00390625 c 0
760.99609375 94.00390625 m 0
 760.99609375 52.583984375 794.587890625 19.00390625 835.99609375 19.00390625 c 0
 877.4140625 19.00390625 910.99609375 52.5859375 910.99609375 94.00390625 c 0
 910.99609375 135.412109375 877.416015625 169.00390625 835.99609375 169.00390625 c 0
 794.5859375 169.00390625 760.99609375 135.4140625 760.99609375 94.00390625 c 0
107.998046875 94.00390625 m 0
 107.998046875 118.86328125 128.138671875 139.00390625 152.998046875 139.00390625 c 0
 177.857421875 139.00390625 197.998046875 118.86328125 197.998046875 94.00390625 c 0
 197.998046875 69.134765625 177.859375 49.00390625 152.998046875 49.00390625 c 0
 128.13671875 49.00390625 107.998046875 69.134765625 107.998046875 94.00390625 c 0
77.998046875 94.00390625 m 0
 77.998046875 52.583984375 111.58984375 19.00390625 152.998046875 19.00390625 c 0
 194.40625 19.00390625 227.998046875 52.583984375 227.998046875 94.00390625 c 0
 227.998046875 135.4140625 194.408203125 169.00390625 152.998046875 169.00390625 c 0
 111.587890625 169.00390625 77.998046875 135.4140625 77.998046875 94.00390625 c 0
672.001953125 507.001953125 m 0
 672.001953125 531.861328125 692.142578125 552.001953125 717.001953125 552.001953125 c 0
 741.861328125 552.001953125 762.001953125 531.861328125 762.001953125 507.001953125 c 0
 762.001953125 482.142578125 741.861328125 462.001953125 717.001953125 462.001953125 c 0
 692.142578125 462.001953125 672.001953125 482.142578125 672.001953125 507.001953125 c 0
642.001953125 507.001953125 m 0
 642.001953125 465.591796875 675.591796875 432.001953125 717.001953125 432.001953125 c 0
 758.412109375 432.001953125 792.001953125 465.591796875 792.001953125 507.001953125 c 0
 792.001953125 548.412109375 758.412109375 582.001953125 717.001953125 582.001953125 c 0
 675.591796875 582.001953125 642.001953125 548.412109375 642.001953125 507.001953125 c 0
272.998046875 582.001953125 m 1
 272.998046875 552.001953125 l 1
 717.001953125 552.001953125 l 1
 717.001953125 582.001953125 l 1
 272.998046875 582.001953125 l 1
227.998046875 507.001953125 m 1
 197.998046875 507.001953125 l 1
 197.998046875 94.00390625 l 1
 227.998046875 94.00390625 l 1
 227.998046875 507.001953125 l 1
790.99609375 515 m 1
 760.99609375 515 l 1
 760.99609375 94.00390625 l 1
 790.99609375 94.00390625 l 1
 790.99609375 515 l 1
EndSplineSet
Validated: 5
EndChar

StartChar: D
Encoding: 68 68 3
Width: 1000
Flags: H
LayerCount: 2
Fore
SplineSet
697.998046875 484.00390625 m 0
 697.998046875 508.86328125 718.138671875 529.00390625 742.998046875 529.00390625 c 0
 767.857421875 529.00390625 787.998046875 508.86328125 787.998046875 484.00390625 c 0
 787.998046875 459.134765625 767.859375 439.00390625 742.998046875 439.00390625 c 0
 718.13671875 439.00390625 697.998046875 459.134765625 697.998046875 484.00390625 c 0
667.998046875 484.00390625 m 0
 667.998046875 442.583984375 701.58984375 409.00390625 742.998046875 409.00390625 c 0
 784.40625 409.00390625 817.998046875 442.583984375 817.998046875 484.00390625 c 0
 817.998046875 525.4140625 784.408203125 559.00390625 742.998046875 559.00390625 c 0
 701.587890625 559.00390625 667.998046875 525.4140625 667.998046875 484.00390625 c 0
207.001953125 527.001953125 m 0
 207.001953125 551.861328125 227.142578125 572.001953125 252.001953125 572.001953125 c 0
 276.861328125 572.001953125 297.001953125 551.861328125 297.001953125 527.001953125 c 0
 297.001953125 502.142578125 276.861328125 482.001953125 252.001953125 482.001953125 c 0
 227.142578125 482.001953125 207.001953125 502.142578125 207.001953125 527.001953125 c 0
177.001953125 527.001953125 m 0
 177.001953125 485.591796875 210.591796875 452.001953125 252.001953125 452.001953125 c 0
 293.412109375 452.001953125 327.001953125 485.591796875 327.001953125 527.001953125 c 0
 327.001953125 568.412109375 293.412109375 602.001953125 252.001953125 602.001953125 c 0
 210.591796875 602.001953125 177.001953125 568.412109375 177.001953125 527.001953125 c 0
697.998046875 64.00390625 m 0
 697.998046875 88.86328125 718.138671875 109.00390625 742.998046875 109.00390625 c 0
 767.857421875 109.00390625 787.998046875 88.86328125 787.998046875 64.00390625 c 0
 787.998046875 39.134765625 767.859375 19.00390625 742.998046875 19.00390625 c 0
 718.13671875 19.00390625 697.998046875 39.134765625 697.998046875 64.00390625 c 0
667.998046875 64.00390625 m 0
 667.998046875 22.583984375 701.58984375 -10.99609375 742.998046875 -10.99609375 c 0
 784.40625 -10.99609375 817.998046875 22.583984375 817.998046875 64.00390625 c 0
 817.998046875 105.4140625 784.408203125 139.00390625 742.998046875 139.00390625 c 0
 701.587890625 139.00390625 667.998046875 105.4140625 667.998046875 64.00390625 c 0
817.998046875 484.00390625 m 1
 787.998046875 484.00390625 l 1
 787.998046875 64.00390625 l 1
 817.998046875 64.00390625 l 1
 817.998046875 484.00390625 l 1
745.336914062 529.185546875 m 1
 745.336914062 529.185546875 740.688476562 558.827148438 740.659179688 558.822265625 c 0
 249.663085938 481.8203125 249.663085938 481.8203125 249.663085938 481.8203125 c 1
 249.663085938 481.8203125 254.311523438 452.178710938 254.340820312 452.18359375 c 0
 745.336914062 529.185546875 745.336914062 529.185546875 745.336914062 529.185546875 c 1
EndSplineSet
Validated: 5
EndChar

StartChar: E
Encoding: 69 69 4
Width: 1000
Flags: H
LayerCount: 2
Fore
SplineSet
792.998046875 49.00390625 m 0
 792.998046875 73.86328125 813.138671875 94.00390625 837.998046875 94.00390625 c 0
 862.857421875 94.00390625 882.998046875 73.86328125 882.998046875 49.00390625 c 0
 882.998046875 24.134765625 862.859375 4.00390625 837.998046875 4.00390625 c 0
 813.13671875 4.00390625 792.998046875 24.134765625 792.998046875 49.00390625 c 0
762.998046875 49.00390625 m 0
 762.998046875 7.583984375 796.58984375 -25.99609375 837.998046875 -25.99609375 c 0
 879.40625 -25.99609375 912.998046875 7.583984375 912.998046875 49.00390625 c 0
 912.998046875 90.4140625 879.408203125 124.00390625 837.998046875 124.00390625 c 0
 796.587890625 124.00390625 762.998046875 90.4140625 762.998046875 49.00390625 c 0
112.998046875 49.00390625 m 0
 112.998046875 73.86328125 133.138671875 94.00390625 157.998046875 94.00390625 c 0
 182.857421875 94.00390625 202.998046875 73.86328125 202.998046875 49.00390625 c 0
 202.998046875 24.134765625 182.859375 4.00390625 157.998046875 4.00390625 c 0
 133.13671875 4.00390625 112.998046875 24.134765625 112.998046875 49.00390625 c 0
82.998046875 49.00390625 m 0
 82.998046875 7.583984375 116.58984375 -25.99609375 157.998046875 -25.99609375 c 0
 199.40625 -25.99609375 232.998046875 7.583984375 232.998046875 49.00390625 c 0
 232.998046875 90.4140625 199.408203125 124.00390625 157.998046875 124.00390625 c 0
 116.587890625 124.00390625 82.998046875 90.4140625 82.998046875 49.00390625 c 0
515.99609375 269.00390625 m 0
 515.99609375 293.86328125 536.13671875 314.00390625 560.99609375 314.00390625 c 0
 585.865234375 314.00390625 605.99609375 293.865234375 605.99609375 269.00390625 c 0
 605.99609375 244.1328125 585.8671875 224.00390625 560.99609375 224.00390625 c 0
 536.134765625 224.00390625 515.99609375 244.134765625 515.99609375 269.00390625 c 0
485.99609375 269.00390625 m 0
 485.99609375 227.583984375 519.587890625 194.00390625 560.99609375 194.00390625 c 0
 602.4140625 194.00390625 635.99609375 227.5859375 635.99609375 269.00390625 c 0
 635.99609375 310.412109375 602.416015625 344.00390625 560.99609375 344.00390625 c 0
 519.5859375 344.00390625 485.99609375 310.4140625 485.99609375 269.00390625 c 0
792.998046875 542.001953125 m 0
 792.998046875 566.861328125 813.138671875 587.001953125 837.998046875 587.001953125 c 0
 862.857421875 587.001953125 882.998046875 566.861328125 882.998046875 542.001953125 c 0
 882.998046875 517.142578125 862.857421875 497.001953125 837.998046875 497.001953125 c 0
 813.138671875 497.001953125 792.998046875 517.142578125 792.998046875 542.001953125 c 0
762.998046875 542.001953125 m 0
 762.998046875 500.591796875 796.587890625 467.001953125 837.998046875 467.001953125 c 0
 879.408203125 467.001953125 912.998046875 500.591796875 912.998046875 542.001953125 c 0
 912.998046875 583.412109375 879.408203125 617.001953125 837.998046875 617.001953125 c 0
 796.587890625 617.001953125 762.998046875 583.412109375 762.998046875 542.001953125 c 0
217.998046875 542.001953125 m 0
 217.998046875 566.861328125 238.138671875 587.001953125 262.998046875 587.001953125 c 0
 287.857421875 587.001953125 307.998046875 566.861328125 307.998046875 542.001953125 c 0
 307.998046875 517.142578125 287.857421875 497.001953125 262.998046875 497.001953125 c 0
 238.138671875 497.001953125 217.998046875 517.142578125 217.998046875 542.001953125 c 0
187.998046875 542.001953125 m 0
 187.998046875 500.591796875 221.587890625 467.001953125 262.998046875 467.001953125 c 0
 304.408203125 467.001953125 337.998046875 500.591796875 337.998046875 542.001953125 c 0
 337.998046875 583.412109375 304.408203125 617.001953125 262.998046875 617.001953125 c 0
 221.587890625 617.001953125 187.998046875 583.412109375 187.998046875 542.001953125 c 0
235.328125 506.479492188 m 1
 235.328125 506.479492188 218.647460938 481.546875 218.67578125 481.528320312 c 0
 502.669921875 291.528320312 502.669921875 291.528320312 502.669921875 291.528320312 c 2
 502.669921875 291.528320312 519.350585938 316.4609375 519.322265625 316.479492188 c 0
 235.328125 506.479492188 235.328125 506.479492188 235.328125 506.479492188 c 1
812.633789062 483.426757812 m 1
 791.370117188 504.581054688 l 1
 600.364257812 312.579101562 l 1
 621.627929688 291.424804688 l 1
 812.633789062 483.426757812 l 1
620.3359375 249.47265625 m 1
 620.3359375 249.47265625 603.638671875 224.55078125 603.66796875 224.53125 c 0
 803.66796875 90.52734375 803.66796875 90.52734375 803.66796875 90.52734375 c 2
 803.66796875 90.52734375 820.365234375 115.44921875 820.3359375 115.46875 c 0
 620.3359375 249.47265625 620.3359375 249.47265625 620.3359375 249.47265625 c 1
518.31640625 221.90625 m 1
 503.708984375 248.111328125 l 1
 405.046875 193.1015625 306.354492188 138.122070312 207.712890625 83.09375 c 1
 222.287109375 56.888671875 l 1
 222.287109375 56.888671875 518.283203125 221.888671875 518.31640625 221.90625 c 1
212.998046875 40 m 1
 212.998046875 10 l 1
 782.998046875 10 l 1
 782.998046875 40 l 1
 212.998046875 40 l 1
EndSplineSet
Validated: 5
EndChar

StartChar: F
Encoding: 70 70 5
Width: 700
Flags: HW
LayerCount: 2
Fore
SplineSet
301.926757812 65 m 0
 301.926757812 89.859375 322.067382812 110 346.926757812 110 c 0
 371.786132812 110 391.926757812 89.859375 391.926757812 65 c 0
 391.926757812 40.140625 371.786132812 20 346.926757812 20 c 0
 322.067382812 20 301.926757812 40.140625 301.926757812 65 c 0
271.926757812 65 m 0
 271.926757812 23.58984375 305.516601562 -10 346.926757812 -10 c 0
 388.336914062 -10 421.926757812 23.58984375 421.926757812 65 c 0
 421.926757812 106.41015625 388.336914062 140 346.926757812 140 c 0
 305.516601562 140 271.926757812 106.41015625 271.926757812 65 c 0
421.926757812 550.99609375 m 0
 421.926757812 575.865234375 442.065429688 595.99609375 466.926757812 595.99609375 c 0
 491.788085938 595.99609375 511.926757812 575.865234375 511.926757812 550.99609375 c 0
 511.926757812 526.13671875 491.786132812 505.99609375 466.926757812 505.99609375 c 0
 442.067382812 505.99609375 421.926757812 526.13671875 421.926757812 550.99609375 c 0
391.926757812 550.99609375 m 0
 391.926757812 509.5859375 425.516601562 475.99609375 466.926757812 475.99609375 c 0
 508.336914062 475.99609375 541.926757812 509.5859375 541.926757812 550.99609375 c 0
 541.926757812 592.416015625 508.334960938 625.99609375 466.926757812 625.99609375 c 0
 425.518554688 625.99609375 391.926757812 592.416015625 391.926757812 550.99609375 c 0
421.926757812 550.99609375 m 1
 391.926757812 550.99609375 l 1
 391.926757812 65 l 1
 421.926757812 65 l 1
 421.926757812 550.99609375 l 1
EndSplineSet
EndChar

StartChar: G
Encoding: 71 71 6
Width: 1000
Flags: H
LayerCount: 2
Fore
SplineSet
682.001953125 607.998046875 m 0
 682.001953125 632.857421875 702.142578125 652.998046875 727.001953125 652.998046875 c 0
 751.861328125 652.998046875 772.001953125 632.857421875 772.001953125 607.998046875 c 0
 772.001953125 583.138671875 751.861328125 562.998046875 727.001953125 562.998046875 c 0
 702.142578125 562.998046875 682.001953125 583.138671875 682.001953125 607.998046875 c 0
652.001953125 607.998046875 m 0
 652.001953125 566.587890625 685.591796875 532.998046875 727.001953125 532.998046875 c 0
 768.412109375 532.998046875 802.001953125 566.587890625 802.001953125 607.998046875 c 0
 802.001953125 649.408203125 768.412109375 682.998046875 727.001953125 682.998046875 c 0
 685.591796875 682.998046875 652.001953125 649.408203125 652.001953125 607.998046875 c 0
337.001953125 317.001953125 m 1
 337.001953125 287.001953125 l 1
 619.00390625 287.001953125 l 1
 619.00390625 317.001953125 l 1
 337.001953125 317.001953125 l 1
754.00390625 302.001953125 m 1
 724.00390625 302.001953125 l 1
 724.00390625 -7.001953125 l 1
 754.00390625 -7.001953125 l 1
 754.00390625 302.001953125 l 1
682.56640625 600.583984375 m 1
 653.42578125 593.432617188 l 1
 720.431640625 320.421875 l 1
 749.572265625 327.573242188 l 1
 682.56640625 600.583984375 l 1
232.001953125 302.001953125 m 0
 232.001953125 326.861328125 252.142578125 347.001953125 277.001953125 347.001953125 c 0
 301.861328125 347.001953125 322.001953125 326.861328125 322.001953125 302.001953125 c 0
 322.001953125 277.142578125 301.861328125 257.001953125 277.001953125 257.001953125 c 0
 252.142578125 257.001953125 232.001953125 277.142578125 232.001953125 302.001953125 c 0
202.001953125 302.001953125 m 0
 202.001953125 260.591796875 235.591796875 227.001953125 277.001953125 227.001953125 c 0
 318.412109375 227.001953125 352.001953125 260.591796875 352.001953125 302.001953125 c 0
 352.001953125 343.412109375 318.412109375 377.001953125 277.001953125 377.001953125 c 0
 235.591796875 377.001953125 202.001953125 343.412109375 202.001953125 302.001953125 c 0
634.00390625 302.001953125 m 0
 634.00390625 326.86328125 654.134765625 347.001953125 679.00390625 347.001953125 c 0
 703.86328125 347.001953125 724.00390625 326.861328125 724.00390625 302.001953125 c 0
 724.00390625 277.142578125 703.86328125 257.001953125 679.00390625 257.001953125 c 0
 654.134765625 257.001953125 634.00390625 277.140625 634.00390625 302.001953125 c 0
604.00390625 302.001953125 m 0
 604.00390625 260.59375 637.583984375 227.001953125 679.00390625 227.001953125 c 0
 720.4140625 227.001953125 754.00390625 260.591796875 754.00390625 302.001953125 c 0
 754.00390625 343.412109375 720.4140625 377.001953125 679.00390625 377.001953125 c 0
 637.583984375 377.001953125 604.00390625 343.41015625 604.00390625 302.001953125 c 0
634.00390625 -7.001953125 m 0
 634.00390625 17.859375 654.134765625 37.998046875 679.00390625 37.998046875 c 0
 703.86328125 37.998046875 724.00390625 17.857421875 724.00390625 -7.001953125 c 0
 724.00390625 -31.861328125 703.86328125 -52.001953125 679.00390625 -52.001953125 c 0
 654.134765625 -52.001953125 634.00390625 -31.86328125 634.00390625 -7.001953125 c 0
604.00390625 -7.001953125 m 0
 604.00390625 -48.41015625 637.583984375 -82.001953125 679.00390625 -82.001953125 c 0
 720.4140625 -82.001953125 754.00390625 -48.412109375 754.00390625 -7.001953125 c 0
 754.00390625 34.408203125 720.4140625 67.998046875 679.00390625 67.998046875 c 0
 637.583984375 67.998046875 604.00390625 34.40625 604.00390625 -7.001953125 c 0
EndSplineSet
Validated: 5
EndChar

StartChar: H
Encoding: 72 72 7
Width: 1000
Flags: H
LayerCount: 2
Fore
SplineSet
357.998046875 542.001953125 m 0
 357.998046875 566.861328125 378.138671875 587.001953125 402.998046875 587.001953125 c 0
 427.857421875 587.001953125 447.998046875 566.861328125 447.998046875 542.001953125 c 0
 447.998046875 517.142578125 427.857421875 497.001953125 402.998046875 497.001953125 c 0
 378.138671875 497.001953125 357.998046875 517.142578125 357.998046875 542.001953125 c 0
327.998046875 542.001953125 m 0
 327.998046875 500.591796875 361.587890625 467.001953125 402.998046875 467.001953125 c 0
 444.408203125 467.001953125 477.998046875 500.591796875 477.998046875 542.001953125 c 0
 477.998046875 583.412109375 444.408203125 617.001953125 402.998046875 617.001953125 c 0
 361.587890625 617.001953125 327.998046875 583.412109375 327.998046875 542.001953125 c 0
130.99609375 542.001953125 m 0
 130.99609375 566.861328125 151.13671875 587.001953125 175.99609375 587.001953125 c 0
 200.865234375 587.001953125 220.99609375 566.86328125 220.99609375 542.001953125 c 0
 220.99609375 517.140625 200.865234375 497.001953125 175.99609375 497.001953125 c 0
 151.13671875 497.001953125 130.99609375 517.142578125 130.99609375 542.001953125 c 0
100.99609375 542.001953125 m 0
 100.99609375 500.591796875 134.5859375 467.001953125 175.99609375 467.001953125 c 0
 217.416015625 467.001953125 250.99609375 500.59375 250.99609375 542.001953125 c 0
 250.99609375 583.41015625 217.416015625 617.001953125 175.99609375 617.001953125 c 0
 134.5859375 617.001953125 100.99609375 583.412109375 100.99609375 542.001953125 c 0
765 542.001953125 m 0
 765 566.861328125 785.140625 587.001953125 810 587.001953125 c 0
 834.859375 587.001953125 855 566.861328125 855 542.001953125 c 0
 855 517.142578125 834.859375 497.001953125 810 497.001953125 c 0
 785.140625 497.001953125 765 517.142578125 765 542.001953125 c 0
735 542.001953125 m 0
 735 500.591796875 768.58984375 467.001953125 810 467.001953125 c 0
 851.41015625 467.001953125 885 500.591796875 885 542.001953125 c 0
 885 583.412109375 851.41015625 617.001953125 810 617.001953125 c 0
 768.58984375 617.001953125 735 583.412109375 735 542.001953125 c 0
357.998046875 52.001953125 m 0
 357.998046875 76.861328125 378.138671875 97.001953125 402.998046875 97.001953125 c 0
 427.857421875 97.001953125 447.998046875 76.861328125 447.998046875 52.001953125 c 0
 447.998046875 27.142578125 427.857421875 7.001953125 402.998046875 7.001953125 c 0
 378.138671875 7.001953125 357.998046875 27.142578125 357.998046875 52.001953125 c 0
327.998046875 52.001953125 m 0
 327.998046875 10.591796875 361.587890625 -22.998046875 402.998046875 -22.998046875 c 0
 444.408203125 -22.998046875 477.998046875 10.591796875 477.998046875 52.001953125 c 0
 477.998046875 93.412109375 444.408203125 127.001953125 402.998046875 127.001953125 c 0
 361.587890625 127.001953125 327.998046875 93.412109375 327.998046875 52.001953125 c 0
765 52.001953125 m 0
 765 76.861328125 785.140625 97.001953125 810 97.001953125 c 0
 834.859375 97.001953125 855 76.861328125 855 52.001953125 c 0
 855 27.142578125 834.859375 7.001953125 810 7.001953125 c 0
 785.140625 7.001953125 765 27.142578125 765 52.001953125 c 0
735 52.001953125 m 0
 735 10.591796875 768.58984375 -22.998046875 810 -22.998046875 c 0
 851.41015625 -22.998046875 885 10.591796875 885 52.001953125 c 0
 885 93.412109375 851.41015625 127.001953125 810 127.001953125 c 0
 768.58984375 127.001953125 735 93.412109375 735 52.001953125 c 0
175.99609375 617.001953125 m 1
 175.99609375 587.001953125 l 1
 814.00390625 587.001953125 l 1
 814.00390625 617.001953125 l 1
 175.99609375 617.001953125 l 1
885 542.001953125 m 1
 855 542.001953125 l 1
 855 52.001953125 l 1
 885 52.001953125 l 1
 885 542.001953125 l 1
477.998046875 542.001953125 m 1
 447.998046875 542.001953125 l 1
 447.998046875 52.001953125 l 1
 477.998046875 52.001953125 l 1
 477.998046875 542.001953125 l 1
EndSplineSet
Validated: 5
EndChar

StartChar: I
Encoding: 73 73 8
Width: 1000
HStem: 2.00195 30<121.089 186.915 808.085 873.911> 122.002 30<121.089 199.762 827.667 873.911> 440.996 30<575.91 642.641> 560.996 30<582.089 647.911>
VStem: 79.0039 30<44.0906 109.913> 214.004 15<62.002 92.002> 540 30<493.178 548.911> 660 30<476.906 548.911> 765.996 15<62.002 92.002> 885.996 30<44.0906 109.913>
LayerCount: 2
Fore
SplineSet
570 515.99609375 m 0
 570 540.865234375 590.138671875 560.99609375 615 560.99609375 c 0
 639.861328125 560.99609375 660 540.865234375 660 515.99609375 c 0
 660 491.13671875 639.859375 470.99609375 615 470.99609375 c 0
 590.140625 470.99609375 570 491.13671875 570 515.99609375 c 0
540 515.99609375 m 0
 540 474.5859375 573.58984375 440.99609375 615 440.99609375 c 0
 656.41015625 440.99609375 690 474.5859375 690 515.99609375 c 0
 690 557.416015625 656.408203125 590.99609375 615 590.99609375 c 0
 573.591796875 590.99609375 540 557.416015625 540 515.99609375 c 0
795.99609375 77.001953125 m 0
 795.99609375 101.861328125 816.13671875 122.001953125 840.99609375 122.001953125 c 0
 865.865234375 122.001953125 885.99609375 101.86328125 885.99609375 77.001953125 c 0
 885.99609375 52.140625 865.865234375 32.001953125 840.99609375 32.001953125 c 0
 816.13671875 32.001953125 795.99609375 52.142578125 795.99609375 77.001953125 c 0
765.99609375 77.001953125 m 0
 765.99609375 35.591796875 799.5859375 2.001953125 840.99609375 2.001953125 c 0
 882.416015625 2.001953125 915.99609375 35.59375 915.99609375 77.001953125 c 0
 915.99609375 118.41015625 882.416015625 152.001953125 840.99609375 152.001953125 c 0
 799.5859375 152.001953125 765.99609375 118.412109375 765.99609375 77.001953125 c 0
109.00390625 77.001953125 m 0
 109.00390625 101.86328125 129.134765625 122.001953125 154.00390625 122.001953125 c 0
 178.86328125 122.001953125 199.00390625 101.861328125 199.00390625 77.001953125 c 0
 199.00390625 52.142578125 178.86328125 32.001953125 154.00390625 32.001953125 c 0
 129.134765625 32.001953125 109.00390625 52.140625 109.00390625 77.001953125 c 0
79.00390625 77.001953125 m 0
 79.00390625 35.59375 112.583984375 2.001953125 154.00390625 2.001953125 c 0
 195.4140625 2.001953125 229.00390625 35.591796875 229.00390625 77.001953125 c 0
 229.00390625 118.412109375 195.4140625 152.001953125 154.00390625 152.001953125 c 0
 112.583984375 152.001953125 79.00390625 118.41015625 79.00390625 77.001953125 c 0
214.00390625 92.001953125 m 1
 214.00390625 62.001953125 l 1
 780.99609375 62.001953125 l 1
 780.99609375 92.001953125 l 1
 214.00390625 92.001953125 l 1
809.63671875 128.1796875 m 1
 836.375 141.7890625 l 1
 779.711914062 253.137695312 723.021484375 364.458007812 666.375 475.82421875 c 1
 639.62109375 462.21484375 l 1
 809.63671875 128.1796875 l 1
575.619140625 471.412109375 m 1
 554.380859375 492.591796875 l 1
 189.380859375 126.5859375 l 1
 210.619140625 105.40625 l 1
 575.619140625 471.412109375 l 1
EndSplineSet
Validated: 5
EndChar

StartChar: J
Encoding: 74 74 9
Width: 1000
Flags: H
LayerCount: 2
Fore
SplineSet
72.001953125 495 m 0
 72.001953125 519.859375 92.142578125 540 117.001953125 540 c 0
 141.861328125 540 162.001953125 519.859375 162.001953125 495 c 0
 162.001953125 470.140625 141.861328125 450 117.001953125 450 c 0
 92.142578125 450 72.001953125 470.140625 72.001953125 495 c 0
42.001953125 495 m 0
 42.001953125 453.58984375 75.591796875 420 117.001953125 420 c 0
 158.412109375 420 192.001953125 453.58984375 192.001953125 495 c 0
 192.001953125 536.41015625 158.412109375 570 117.001953125 570 c 0
 75.591796875 570 42.001953125 536.41015625 42.001953125 495 c 0
450 495 m 0
 450 519.859375 470.140625 540 495 540 c 0
 519.859375 540 540 519.859375 540 495 c 0
 540 470.140625 519.859375 450 495 450 c 0
 470.140625 450 450 470.140625 450 495 c 0
420 495 m 0
 420 453.58984375 453.58984375 420 495 420 c 0
 536.41015625 420 570 453.58984375 570 495 c 0
 570 536.41015625 536.41015625 570 495 570 c 0
 453.58984375 570 420 536.41015625 420 495 c 0
832.001953125 495 m 0
 832.001953125 519.859375 852.142578125 540 877.001953125 540 c 0
 901.861328125 540 922.001953125 519.859375 922.001953125 495 c 0
 922.001953125 470.140625 901.861328125 450 877.001953125 450 c 0
 852.142578125 450 832.001953125 470.140625 832.001953125 495 c 0
802.001953125 495 m 0
 802.001953125 453.58984375 835.591796875 420 877.001953125 420 c 0
 918.412109375 420 952.001953125 453.58984375 952.001953125 495 c 0
 952.001953125 536.41015625 918.412109375 570 877.001953125 570 c 0
 835.591796875 570 802.001953125 536.41015625 802.001953125 495 c 0
450 90 m 0
 450 114.859375 470.140625 135 495 135 c 0
 519.859375 135 540 114.859375 540 90 c 0
 540 65.140625 519.859375 45 495 45 c 0
 470.140625 45 450 65.140625 450 90 c 0
420 90 m 0
 420 48.58984375 453.58984375 15 495 15 c 0
 536.41015625 15 570 48.58984375 570 90 c 0
 570 131.41015625 536.41015625 165 495 165 c 0
 453.58984375 165 420 131.41015625 420 90 c 0
510 435 m 1
 480 435 l 1
 480 150 l 1
 510 150 l 1
 510 435 l 1
102.001953125 275.830078125 m 2
 99.66796875 233.122070312 120.4296875 77.00390625 321.731445312 77.00390625 c 0
 322.001953125 77.001953125 434.729492188 75.001953125 434.729492188 75.001953125 c 1
 435.270507812 104.998046875 l 1
 322.272460938 107 l 2
 217.884765625 107 172.501953125 150.830078125 151.040039062 192.610351562 c 0
 133.58203125 226.599609375 131.9296875 261.033203125 131.9296875 271.249023438 c 0
 131.9296875 272.88671875 131.979492188 167.622070312 131.979492188 435 c 1
 102.001953125 435 l 1
 102.001953125 275.830078125 l 2
857.998046875 274.169921875 m 2
 858.096679688 273.337890625 859.609375 232.8125 838.959960938 192.610351562 c 0
 817.498046875 150.830078125 772.115234375 107 667.727539062 107 c 1
 667.998046875 107.001953125 554.729492188 104.998046875 554.729492188 104.998046875 c 1
 555.260742188 75.001953125 l 2
 555.270507812 75.001953125 667.998046875 77.001953125 668.268554688 77.00390625 c 0
 782.438476562 77.00390625 839.359375 127.7265625 865.663085938 178.93359375 c 0
 886.416015625 219.334960938 888.0703125 258.290039062 888.0703125 271.249023438 c 0
 888.0703125 272.88671875 887.975585938 171.022460938 887.975585938 435 c 1
 857.998046875 435 l 1
 857.998046875 274.169921875 l 2
EndSplineSet
Validated: 37
EndChar

StartChar: K
Encoding: 75 75 10
Width: 1000
Flags: H
LayerCount: 2
Fore
SplineSet
200 507.998046875 m 0
 200 532.857421875 220.140625 552.998046875 245 552.998046875 c 0
 269.859375 552.998046875 290 532.857421875 290 507.998046875 c 0
 290 483.138671875 269.859375 462.998046875 245 462.998046875 c 0
 220.140625 462.998046875 200 483.138671875 200 507.998046875 c 0
170 507.998046875 m 0
 170 466.587890625 203.58984375 432.998046875 245 432.998046875 c 0
 286.41015625 432.998046875 320 466.587890625 320 507.998046875 c 0
 320 549.408203125 286.41015625 582.998046875 245 582.998046875 c 0
 203.58984375 582.998046875 170 549.408203125 170 507.998046875 c 0
580 507.998046875 m 0
 580 532.857421875 600.140625 552.998046875 625 552.998046875 c 0
 649.859375 552.998046875 670 532.857421875 670 507.998046875 c 0
 670 483.138671875 649.859375 462.998046875 625 462.998046875 c 0
 600.140625 462.998046875 580 483.138671875 580 507.998046875 c 0
550 507.998046875 m 0
 550 466.587890625 583.58984375 432.998046875 625 432.998046875 c 0
 666.41015625 432.998046875 700 466.587890625 700 507.998046875 c 0
 700 549.408203125 666.41015625 582.998046875 625 582.998046875 c 0
 583.58984375 582.998046875 550 549.408203125 550 507.998046875 c 0
502.998046875 72.001953125 m 0
 502.998046875 96.861328125 523.138671875 117.001953125 547.998046875 117.001953125 c 0
 572.857421875 117.001953125 592.998046875 96.861328125 592.998046875 72.001953125 c 0
 592.998046875 47.142578125 572.857421875 27.001953125 547.998046875 27.001953125 c 0
 523.138671875 27.001953125 502.998046875 47.142578125 502.998046875 72.001953125 c 0
472.998046875 72.001953125 m 0
 472.998046875 30.591796875 506.587890625 -2.998046875 547.998046875 -2.998046875 c 0
 589.408203125 -2.998046875 622.998046875 30.591796875 622.998046875 72.001953125 c 0
 622.998046875 113.412109375 589.408203125 147.001953125 547.998046875 147.001953125 c 0
 506.587890625 147.001953125 472.998046875 113.412109375 472.998046875 72.001953125 c 0
702.001953125 247.998046875 m 0
 702.001953125 272.857421875 722.142578125 292.998046875 747.001953125 292.998046875 c 0
 771.861328125 292.998046875 792.001953125 272.857421875 792.001953125 247.998046875 c 0
 792.001953125 223.138671875 771.861328125 202.998046875 747.001953125 202.998046875 c 0
 722.142578125 202.998046875 702.001953125 223.138671875 702.001953125 247.998046875 c 0
672.001953125 247.998046875 m 0
 672.001953125 206.587890625 705.591796875 172.998046875 747.001953125 172.998046875 c 0
 788.412109375 172.998046875 822.001953125 206.587890625 822.001953125 247.998046875 c 0
 822.001953125 289.408203125 788.412109375 322.998046875 747.001953125 322.998046875 c 0
 705.591796875 322.998046875 672.001953125 289.408203125 672.001953125 247.998046875 c 0
305 522.998046875 m 1
 305 492.998046875 l 1
 565 492.998046875 l 1
 565 522.998046875 l 1
 305 522.998046875 l 1
730 410 m 2
 730 307.998046875 l 1
 760 307.998046875 l 1
 760 410 l 2
 760 481.194335938 707.564453125 503.018554688 683.174804688 504.955078125 c 1
 680.80078125 475.047851562 l 2
 680.80078125 475.047851562 689.248046875 474.740234375 701.00390625 468.208984375 c 0
 714.298828125 460.822265625 730 446.314453125 730 410 c 2
593.071289062 72.513671875 m 1
 593.071289062 72.513671875 622.927734375 75.4638671875 622.924804688 75.494140625 c 0
 580.922851562 500.494140625 580.922851562 500.494140625 580.922851562 500.494140625 c 1
 580.922851562 500.494140625 551.06640625 497.543945312 551.069335938 497.513671875 c 0
 593.071289062 72.513671875 593.071289062 72.513671875 593.071289062 72.513671875 c 1
EndSplineSet
Validated: 5
EndChar

StartChar: L
Encoding: 76 76 11
Width: 1000
Flags: H
LayerCount: 2
Fore
SplineSet
119.00390625 60 m 0
 119.00390625 84.861328125 139.134765625 105 164.00390625 105 c 0
 188.86328125 105 209.00390625 84.859375 209.00390625 60 c 0
 209.00390625 35.140625 188.86328125 15 164.00390625 15 c 0
 139.134765625 15 119.00390625 35.138671875 119.00390625 60 c 0
89.00390625 60 m 0
 89.00390625 18.591796875 122.583984375 -15 164.00390625 -15 c 0
 205.4140625 -15 239.00390625 18.58984375 239.00390625 60 c 0
 239.00390625 101.41015625 205.4140625 135 164.00390625 135 c 0
 122.583984375 135 89.00390625 101.408203125 89.00390625 60 c 0
782.998046875 220 m 0
 782.998046875 244.859375 803.138671875 265 827.998046875 265 c 0
 852.857421875 265 872.998046875 244.859375 872.998046875 220 c 0
 872.998046875 195.140625 852.857421875 175 827.998046875 175 c 0
 803.138671875 175 782.998046875 195.140625 782.998046875 220 c 0
752.998046875 220 m 0
 752.998046875 178.58984375 786.587890625 145 827.998046875 145 c 0
 869.408203125 145 902.998046875 178.58984375 902.998046875 220 c 0
 902.998046875 261.41015625 869.408203125 295 827.998046875 295 c 0
 786.587890625 295 752.998046875 261.41015625 752.998046875 220 c 0
119.00390625 320 m 0
 119.00390625 344.861328125 139.134765625 365 164.00390625 365 c 0
 188.86328125 365 209.00390625 344.859375 209.00390625 320 c 0
 209.00390625 295.140625 188.86328125 275 164.00390625 275 c 0
 139.134765625 275 119.00390625 295.138671875 119.00390625 320 c 0
89.00390625 320 m 0
 89.00390625 278.591796875 122.583984375 245 164.00390625 245 c 0
 205.4140625 245 239.00390625 278.58984375 239.00390625 320 c 0
 239.00390625 361.41015625 205.4140625 395 164.00390625 395 c 0
 122.583984375 395 89.00390625 361.408203125 89.00390625 320 c 0
739.00390625 527.001953125 m 0
 739.00390625 551.86328125 759.134765625 572.001953125 784.00390625 572.001953125 c 0
 808.86328125 572.001953125 829.00390625 551.861328125 829.00390625 527.001953125 c 0
 829.00390625 502.142578125 808.86328125 482.001953125 784.00390625 482.001953125 c 0
 759.134765625 482.001953125 739.00390625 502.140625 739.00390625 527.001953125 c 0
709.00390625 527.001953125 m 0
 709.00390625 485.59375 742.583984375 452.001953125 784.00390625 452.001953125 c 0
 825.4140625 452.001953125 859.00390625 485.591796875 859.00390625 527.001953125 c 0
 859.00390625 568.412109375 825.4140625 602.001953125 784.00390625 602.001953125 c 0
 742.583984375 602.001953125 709.00390625 568.41015625 709.00390625 527.001953125 c 0
730.703125 498.752929688 m 1
 721.2890625 527.243164062 l 1
 213.291015625 359.245117188 l 1
 222.705078125 330.754882812 l 1
 730.703125 498.752929688 l 1
221.92578125 317.969726562 m 1
 220.06640625 288.026367188 l 1
 791.072265625 253.026367188 l 1
 792.931640625 282.969726562 l 1
 221.92578125 317.969726562 l 1
163.09765625 134.97265625 m 1
 164.885742188 105.025390625 l 1
 834.91015625 145.02734375 l 1
 833.122070312 174.974609375 l 1
 163.09765625 134.97265625 l 1
EndSplineSet
Validated: 5
EndChar

StartChar: M
Encoding: 77 77 12
Width: 1000
Flags: H
LayerCount: 2
Fore
SplineSet
290.99609375 50.99609375 m 0
 290.99609375 75.865234375 311.134765625 95.99609375 335.99609375 95.99609375 c 0
 360.8671875 95.99609375 380.99609375 75.8671875 380.99609375 50.99609375 c 0
 380.99609375 26.134765625 360.865234375 5.99609375 335.99609375 5.99609375 c 0
 311.13671875 5.99609375 290.99609375 26.13671875 290.99609375 50.99609375 c 0
260.99609375 50.99609375 m 0
 260.99609375 9.5859375 294.5859375 -24.00390625 335.99609375 -24.00390625 c 0
 377.416015625 -24.00390625 410.99609375 9.587890625 410.99609375 50.99609375 c 0
 410.99609375 92.4140625 377.4140625 125.99609375 335.99609375 125.99609375 c 0
 294.587890625 125.99609375 260.99609375 92.416015625 260.99609375 50.99609375 c 0
417.998046875 332.998046875 m 0
 417.998046875 357.857421875 438.138671875 377.998046875 462.998046875 377.998046875 c 0
 487.857421875 377.998046875 507.998046875 357.857421875 507.998046875 332.998046875 c 0
 507.998046875 308.138671875 487.857421875 287.998046875 462.998046875 287.998046875 c 0
 438.138671875 287.998046875 417.998046875 308.138671875 417.998046875 332.998046875 c 0
387.998046875 332.998046875 m 0
 387.998046875 291.587890625 421.587890625 257.998046875 462.998046875 257.998046875 c 0
 504.408203125 257.998046875 537.998046875 291.587890625 537.998046875 332.998046875 c 0
 537.998046875 374.408203125 504.408203125 407.998046875 462.998046875 407.998046875 c 0
 421.587890625 407.998046875 387.998046875 374.408203125 387.998046875 332.998046875 c 0
692.001953125 532.001953125 m 0
 692.001953125 556.861328125 712.142578125 577.001953125 737.001953125 577.001953125 c 0
 761.861328125 577.001953125 782.001953125 556.861328125 782.001953125 532.001953125 c 0
 782.001953125 507.142578125 761.861328125 487.001953125 737.001953125 487.001953125 c 0
 712.142578125 487.001953125 692.001953125 507.142578125 692.001953125 532.001953125 c 0
662.001953125 532.001953125 m 0
 662.001953125 490.591796875 695.591796875 457.001953125 737.001953125 457.001953125 c 0
 778.412109375 457.001953125 812.001953125 490.591796875 812.001953125 532.001953125 c 0
 812.001953125 573.412109375 778.412109375 607.001953125 737.001953125 607.001953125 c 0
 695.591796875 607.001953125 662.001953125 573.412109375 662.001953125 532.001953125 c 0
217.001953125 532.001953125 m 0
 217.001953125 556.861328125 237.142578125 577.001953125 262.001953125 577.001953125 c 0
 286.861328125 577.001953125 307.001953125 556.861328125 307.001953125 532.001953125 c 0
 307.001953125 507.142578125 286.861328125 487.001953125 262.001953125 487.001953125 c 0
 237.142578125 487.001953125 217.001953125 507.142578125 217.001953125 532.001953125 c 0
187.001953125 532.001953125 m 0
 187.001953125 490.591796875 220.591796875 457.001953125 262.001953125 457.001953125 c 0
 303.412109375 457.001953125 337.001953125 490.591796875 337.001953125 532.001953125 c 0
 337.001953125 573.412109375 303.412109375 607.001953125 262.001953125 607.001953125 c 0
 220.591796875 607.001953125 187.001953125 573.412109375 187.001953125 532.001953125 c 0
692.001953125 50.99609375 m 0
 692.001953125 75.865234375 712.140625 95.99609375 737.001953125 95.99609375 c 0
 761.86328125 95.99609375 782.001953125 75.865234375 782.001953125 50.99609375 c 0
 782.001953125 26.13671875 761.861328125 5.99609375 737.001953125 5.99609375 c 0
 712.142578125 5.99609375 692.001953125 26.13671875 692.001953125 50.99609375 c 0
662.001953125 50.99609375 m 0
 662.001953125 9.5859375 695.591796875 -24.00390625 737.001953125 -24.00390625 c 0
 778.412109375 -24.00390625 812.001953125 9.5859375 812.001953125 50.99609375 c 0
 812.001953125 92.416015625 778.41015625 125.99609375 737.001953125 125.99609375 c 0
 695.59375 125.99609375 662.001953125 92.416015625 662.001953125 50.99609375 c 0
316.4609375 501.739257812 m 1
 295.529296875 480.255859375 l 1
 412.533203125 366.258789062 l 1
 433.46484375 387.7421875 l 1
 316.4609375 501.739257812 l 1
281.817382812 103.010742188 m 1
 302.186523438 80.9931640625 l 1
 719.188476562 466.989257812 l 1
 698.819335938 489.006835938 l 1
 281.817382812 103.010742188 l 1
811.8828125 521.099609375 m 1
 782.125 524.927734375 l 1
 764.459960938 387.58203125 746.786132812 250.24609375 729.126953125 112.89453125 c 1
 758.880859375 109.06640625 l 1
 811.8828125 521.099609375 l 1
EndSplineSet
Validated: 5
EndChar

StartChar: N
Encoding: 78 78 13
Width: 1000
Flags: H
LayerCount: 2
Fore
SplineSet
70 137.001953125 m 0
 70 161.861328125 90.140625 182.001953125 115 182.001953125 c 0
 139.859375 182.001953125 160 161.861328125 160 137.001953125 c 0
 160 112.142578125 139.859375 92.001953125 115 92.001953125 c 0
 90.140625 92.001953125 70 112.142578125 70 137.001953125 c 0
40 137.001953125 m 0
 40 95.591796875 73.58984375 62.001953125 115 62.001953125 c 0
 156.41015625 62.001953125 190 95.591796875 190 137.001953125 c 0
 190 178.412109375 156.41015625 212.001953125 115 212.001953125 c 0
 73.58984375 212.001953125 40 178.412109375 40 137.001953125 c 0
837.998046875 137.001953125 m 0
 837.998046875 161.861328125 858.138671875 182.001953125 882.998046875 182.001953125 c 0
 907.857421875 182.001953125 927.998046875 161.861328125 927.998046875 137.001953125 c 0
 927.998046875 112.142578125 907.857421875 92.001953125 882.998046875 92.001953125 c 0
 858.138671875 92.001953125 837.998046875 112.142578125 837.998046875 137.001953125 c 0
807.998046875 137.001953125 m 0
 807.998046875 95.591796875 841.587890625 62.001953125 882.998046875 62.001953125 c 0
 924.408203125 62.001953125 957.998046875 95.591796875 957.998046875 137.001953125 c 0
 957.998046875 178.412109375 924.408203125 212.001953125 882.998046875 212.001953125 c 0
 841.587890625 212.001953125 807.998046875 178.412109375 807.998046875 137.001953125 c 0
430 462.001953125 m 0
 430 486.861328125 450.140625 507.001953125 475 507.001953125 c 0
 499.859375 507.001953125 520 486.861328125 520 462.001953125 c 0
 520 437.142578125 499.859375 417.001953125 475 417.001953125 c 0
 450.140625 417.001953125 430 437.142578125 430 462.001953125 c 0
400 462.001953125 m 0
 400 420.591796875 433.58984375 387.001953125 475 387.001953125 c 0
 516.41015625 387.001953125 550 420.591796875 550 462.001953125 c 0
 550 503.412109375 516.41015625 537.001953125 475 537.001953125 c 0
 433.58984375 537.001953125 400 503.412109375 400 462.001953125 c 0
115 92.001953125 m 1
 115 62.001953125 l 1
 882.998046875 62.001953125 l 1
 882.998046875 92.001953125 l 1
 115 92.001953125 l 1
917.663085938 166.262695312 m 1
 936.359375 189.71875 l 1
 522.336914062 519.733398438 l 1
 503.640625 496.27734375 l 1
 917.663085938 166.262695312 l 1
EndSplineSet
Validated: 5
EndChar

StartChar: O
Encoding: 79 79 14
Width: 700
Flags: HW
LayerCount: 2
Fore
SplineSet
360.935546875 552.001953125 m 0
 360.935546875 576.86328125 381.06640625 597.001953125 405.935546875 597.001953125 c 0
 430.794921875 597.001953125 450.935546875 576.861328125 450.935546875 552.001953125 c 0
 450.935546875 527.142578125 430.794921875 507.001953125 405.935546875 507.001953125 c 0
 381.06640625 507.001953125 360.935546875 527.140625 360.935546875 552.001953125 c 0
330.935546875 552.001953125 m 0
 330.935546875 510.59375 364.515625 477.001953125 405.935546875 477.001953125 c 0
 447.345703125 477.001953125 480.935546875 510.591796875 480.935546875 552.001953125 c 0
 480.935546875 593.412109375 447.345703125 627.001953125 405.935546875 627.001953125 c 0
 364.515625 627.001953125 330.935546875 593.41015625 330.935546875 552.001953125 c 0
405.935546875 17.001953125 m 0
 309.16796875 17.001953125 229.9296875 148.491210938 229.9296875 307.001953125 c 0
 229.9296875 465.534179688 309.180664062 597.001953125 405.935546875 597.001953125 c 0
 502.692382812 597.001953125 581.931640625 465.513671875 581.931640625 307.001953125 c 0
 581.931640625 148.4765625 502.684570312 17.001953125 405.935546875 17.001953125 c 0
405.935546875 627.001953125 m 0
 292.14453125 627.001953125 199.9296875 485.7578125 199.9296875 307.001953125 c 0
 199.9296875 128.245117188 292.145507812 -12.998046875 405.935546875 -12.998046875 c 0
 519.716796875 -12.998046875 611.931640625 128.24609375 611.931640625 307.001953125 c 0
 611.931640625 485.752929688 519.719726562 627.001953125 405.935546875 627.001953125 c 0
EndSplineSet
Validated: 524293
EndChar

StartChar: P
Encoding: 80 80 15
Width: 1000
Flags: H
LayerCount: 2
Fore
SplineSet
535 420 m 0
 535 444.859375 555.140625 465 580 465 c 0
 604.859375 465 625 444.859375 625 420 c 0
 625 395.140625 604.859375 375 580 375 c 0
 555.140625 375 535 395.140625 535 420 c 0
505 420 m 0
 505 378.58984375 538.58984375 345 580 345 c 0
 621.41015625 345 655 378.58984375 655 420 c 0
 655 461.41015625 621.41015625 495 580 495 c 0
 538.58984375 495 505 461.41015625 505 420 c 0
62.998046875 165 m 0
 62.998046875 189.859375 83.138671875 210 107.998046875 210 c 0
 132.857421875 210 152.998046875 189.859375 152.998046875 165 c 0
 152.998046875 140.140625 132.857421875 120 107.998046875 120 c 0
 83.138671875 120 62.998046875 140.140625 62.998046875 165 c 0
32.998046875 165 m 0
 32.998046875 123.58984375 66.587890625 90 107.998046875 90 c 0
 149.408203125 90 182.998046875 123.58984375 182.998046875 165 c 0
 182.998046875 206.41015625 149.408203125 240 107.998046875 240 c 0
 66.587890625 240 32.998046875 206.41015625 32.998046875 165 c 0
960.147460938 425.377929688 m 0
 960.147460938 491.077148438 920.172851562 605 740 605 c 0
 546.885742188 605 508.376953125 463.610351562 505.0625 427.376953125 c 1
 534.9375 424.615234375 l 1
 534.9375 424.615234375 537.109375 452.845703125 557.172851562 486.767578125 c 0
 581.408203125 527.744140625 631.12890625 575 740 575 c 0
 844.028320312 575 889.290039062 535.7734375 910.703125 498.474609375 c 0
 917.415039062 486.783203125 930.02734375 464.814453125 930.02734375 417.767578125 c 0
 930.02734375 387.538085938 918.028320312 72.8369140625 420.352539062 19.91015625 c 0
 404.454101562 18.12109375 207.057617188 2.2080078125 134.569335938 113.1875 c 1
 109.434570312 96.8125 l 1
 137.796875 53.3896484375 181.178710938 27.2548828125 225.631835938 11.580078125 c 0
 281.302734375 -8.048828125 339.748046875 -11.8701171875 378.5859375 -11.8701171875 c 0
 405.663085938 -11.8701171875 423.234375 -9.9560546875 423.651367188 -9.91015625 c 0
 711.256835938 20.67578125 846.21875 137.895507812 908.166992188 243.51953125 c 0
 929.431640625 279.776367188 960.147460938 345.88671875 960.147460938 425.377929688 c 0
930.009765625 419.447265625 m 1
 930.009765625 419.447265625 930.009765625 419.458007812 930.009765625 419.447265625 c 1
EndSplineSet
Validated: 37
EndChar

StartChar: Q
Encoding: 81 81 16
Width: 1000
Flags: H
LayerCount: 2
Fore
SplineSet
185 480 m 0
 185 504.859375 205.140625 525 230 525 c 0
 254.859375 525 275 504.859375 275 480 c 0
 275 455.140625 254.859375 435 230 435 c 0
 205.140625 435 185 455.140625 185 480 c 0
155 480 m 0
 155 438.58984375 188.58984375 405 230 405 c 0
 271.41015625 405 305 438.58984375 305 480 c 0
 305 521.41015625 271.41015625 555 230 555 c 0
 188.58984375 555 155 521.41015625 155 480 c 0
185 145.99609375 m 0
 185 170.865234375 205.138671875 190.99609375 230 190.99609375 c 0
 254.861328125 190.99609375 275 170.865234375 275 145.99609375 c 0
 275 121.13671875 254.859375 100.99609375 230 100.99609375 c 0
 205.140625 100.99609375 185 121.13671875 185 145.99609375 c 0
155 145.99609375 m 0
 155 104.5859375 188.58984375 70.99609375 230 70.99609375 c 0
 271.41015625 70.99609375 305 104.5859375 305 145.99609375 c 0
 305 187.416015625 271.408203125 220.99609375 230 220.99609375 c 0
 188.591796875 220.99609375 155 187.416015625 155 145.99609375 c 0
286.041015625 509.850585938 m 2
 290.491210938 514.694335938 398.791992188 627.551757812 586.34765625 620.013671875 c 0
 753.399414062 612.831054688 817.634765625 488.983398438 817.634765625 389.3125 c 0
 817.634765625 325.916992188 773.819335938 5.0830078125 427.948242188 -21.033203125 c 0
 425.907226562 -21.197265625 282.696289062 -30.03515625 256.66796875 91.158203125 c 1
 227.33203125 84.857421875 l 1
 257.88671875 -57.4111328125 417.426757812 -51.8388671875 430.059570312 -50.958984375 c 0
 799.6484375 -23.052734375 847.634765625 319.703125 847.634765625 389.3125 c 0
 847.634765625 501.127929688 773.0625 642.013671875 587.65625 649.986328125 c 0
 581.186523438 650.24609375 574.758789062 650.374023438 568.458984375 650.374023438 c 0
 374.561523438 650.374023438 265.174804688 531.47265625 263.953125 530.142578125 c 1
 286.041015625 509.850585938 l 2
EndSplineSet
Validated: 37
EndChar

StartChar: R
Encoding: 82 82 17
Width: 1000
Flags: H
LayerCount: 2
Fore
SplineSet
680 37.998046875 m 0
 680 62.857421875 700.140625 82.998046875 725 82.998046875 c 0
 749.859375 82.998046875 770 62.857421875 770 37.998046875 c 0
 770 13.138671875 749.859375 -7.001953125 725 -7.001953125 c 0
 700.140625 -7.001953125 680 13.138671875 680 37.998046875 c 0
650 37.998046875 m 0
 650 -3.412109375 683.58984375 -37.001953125 725 -37.001953125 c 0
 766.41015625 -37.001953125 800 -3.412109375 800 37.998046875 c 0
 800 79.408203125 766.41015625 112.998046875 725 112.998046875 c 0
 683.58984375 112.998046875 650 79.408203125 650 37.998046875 c 0
227.001953125 555 m 0
 227.001953125 579.859375 247.142578125 600 272.001953125 600 c 0
 296.861328125 600 317.001953125 579.859375 317.001953125 555 c 0
 317.001953125 530.140625 296.861328125 510 272.001953125 510 c 0
 247.142578125 510 227.001953125 530.140625 227.001953125 555 c 0
197.001953125 555 m 0
 197.001953125 513.58984375 230.591796875 480 272.001953125 480 c 0
 313.412109375 480 347.001953125 513.58984375 347.001953125 555 c 0
 347.001953125 596.41015625 313.412109375 630 272.001953125 630 c 0
 230.591796875 630 197.001953125 596.41015625 197.001953125 555 c 0
740 470 m 2
 740 563.59375 649.071289062 570.944335938 640 570 c 2
 332.001953125 570 l 1
 332.001953125 540 l 1
 640 540 l 1
 640 540 710 540 710 470 c 2
 710 97.998046875 l 1
 740 97.998046875 l 1
 740 470 l 2
EndSplineSet
Validated: 37
EndChar

StartChar: S
Encoding: 83 83 18
Width: 1000
Flags: H
LayerCount: 2
Fore
SplineSet
785 517.001953125 m 0
 785 541.861328125 805.140625 562.001953125 830 562.001953125 c 0
 854.859375 562.001953125 875 541.861328125 875 517.001953125 c 0
 875 492.142578125 854.859375 472.001953125 830 472.001953125 c 0
 805.140625 472.001953125 785 492.142578125 785 517.001953125 c 0
755 517.001953125 m 0
 755 475.591796875 788.58984375 442.001953125 830 442.001953125 c 0
 871.41015625 442.001953125 905 475.591796875 905 517.001953125 c 0
 905 558.412109375 871.41015625 592.001953125 830 592.001953125 c 0
 788.58984375 592.001953125 755 558.412109375 755 517.001953125 c 0
115.99609375 517.001953125 m 0
 115.99609375 541.861328125 136.13671875 562.001953125 160.99609375 562.001953125 c 0
 185.865234375 562.001953125 205.99609375 541.86328125 205.99609375 517.001953125 c 0
 205.99609375 492.140625 185.865234375 472.001953125 160.99609375 472.001953125 c 0
 136.13671875 472.001953125 115.99609375 492.142578125 115.99609375 517.001953125 c 0
85.99609375 517.001953125 m 0
 85.99609375 475.591796875 119.5859375 442.001953125 160.99609375 442.001953125 c 0
 202.416015625 442.001953125 235.99609375 475.59375 235.99609375 517.001953125 c 0
 235.99609375 558.41015625 202.416015625 592.001953125 160.99609375 592.001953125 c 0
 119.5859375 592.001953125 85.99609375 558.412109375 85.99609375 517.001953125 c 0
497.001953125 25 m 0
 376.541992188 25 175.99609375 66.2548828125 175.99609375 340.99609375 c 2
 175.99609375 457.001953125 l 1
 145.99609375 457.001953125 l 1
 145.99609375 340.99609375 l 2
 145.99609375 204.655273438 194.09375 111.766601562 271.712890625 57.0771484375 c 0
 333.481445312 13.5556640625 412.193359375 -5 497.001953125 -5 c 0
 689.6796875 -5 847.998046875 125.647460938 847.998046875 320.99609375 c 2
 847.998046875 457.001953125 l 1
 817.998046875 457.001953125 l 1
 817.998046875 320.99609375 l 2
 817.998046875 144.352539062 676.31640625 25 497.001953125 25 c 0
219.509765625 531.928710938 m 1
 219.509765625 531.928710938 222.452148438 502.072265625 222.482421875 502.075195312 c 0
 831.486328125 562.075195312 831.486328125 562.075195312 831.486328125 562.075195312 c 2
 831.486328125 562.075195312 828.543945312 591.931640625 828.513671875 591.928710938 c 0
 219.509765625 531.928710938 219.509765625 531.928710938 219.509765625 531.928710938 c 1
EndSplineSet
Validated: 5
EndChar

StartChar: T
Encoding: 84 84 19
Width: 1000
Flags: H
LayerCount: 2
Fore
SplineSet
110.99609375 109.00390625 m 0
 110.99609375 133.86328125 131.13671875 154.00390625 155.99609375 154.00390625 c 0
 180.865234375 154.00390625 200.99609375 133.865234375 200.99609375 109.00390625 c 0
 200.99609375 84.1328125 180.8671875 64.00390625 155.99609375 64.00390625 c 0
 131.134765625 64.00390625 110.99609375 84.134765625 110.99609375 109.00390625 c 0
80.99609375 109.00390625 m 0
 80.99609375 67.583984375 114.587890625 34.00390625 155.99609375 34.00390625 c 0
 197.4140625 34.00390625 230.99609375 67.5859375 230.99609375 109.00390625 c 0
 230.99609375 150.412109375 197.416015625 184.00390625 155.99609375 184.00390625 c 0
 114.5859375 184.00390625 80.99609375 150.4140625 80.99609375 109.00390625 c 0
200 557.001953125 m 0
 200 581.861328125 220.140625 602.001953125 245 602.001953125 c 0
 269.859375 602.001953125 290 581.861328125 290 557.001953125 c 0
 290 532.142578125 269.859375 512.001953125 245 512.001953125 c 0
 220.140625 512.001953125 200 532.142578125 200 557.001953125 c 0
170 557.001953125 m 0
 170 515.591796875 203.58984375 482.001953125 245 482.001953125 c 0
 286.41015625 482.001953125 320 515.591796875 320 557.001953125 c 0
 320 598.412109375 286.41015625 632.001953125 245 632.001953125 c 0
 203.58984375 632.001953125 170 598.412109375 170 557.001953125 c 0
795 557.001953125 m 0
 795 581.861328125 815.140625 602.001953125 840 602.001953125 c 0
 864.859375 602.001953125 885 581.861328125 885 557.001953125 c 0
 885 532.142578125 864.859375 512.001953125 840 512.001953125 c 0
 815.140625 512.001953125 795 532.142578125 795 557.001953125 c 0
765 557.001953125 m 0
 765 515.591796875 798.58984375 482.001953125 840 482.001953125 c 0
 881.41015625 482.001953125 915 515.591796875 915 557.001953125 c 0
 915 598.412109375 881.41015625 632.001953125 840 632.001953125 c 0
 798.58984375 632.001953125 765 598.412109375 765 557.001953125 c 0
795 35.99609375 m 0
 795 60.865234375 815.138671875 80.99609375 840 80.99609375 c 0
 864.861328125 80.99609375 885 60.865234375 885 35.99609375 c 0
 885 11.13671875 864.859375 -9.00390625 840 -9.00390625 c 0
 815.140625 -9.00390625 795 11.13671875 795 35.99609375 c 0
765 35.99609375 m 0
 765 -5.4140625 798.58984375 -39.00390625 840 -39.00390625 c 0
 881.41015625 -39.00390625 915 -5.4140625 915 35.99609375 c 0
 915 77.416015625 881.408203125 110.99609375 840 110.99609375 c 0
 798.591796875 110.99609375 765 77.416015625 765 35.99609375 c 0
305 572.001953125 m 1
 305 542.001953125 l 1
 780 542.001953125 l 1
 780 572.001953125 l 1
 305 572.001953125 l 1
855 497.001953125 m 1
 825 497.001953125 l 1
 825 95.99609375 l 1
 855 95.99609375 l 1
 855 497.001953125 l 1
802.115234375 505.380859375 m 1
 785.923828125 530.634765625 l 1
 197.90625 153.626953125 l 1
 214.076171875 128.359375 l 1
 802.115234375 505.380859375 l 1
EndSplineSet
Validated: 5
EndChar

StartChar: U
Encoding: 85 85 20
Width: 1000
Flags: H
LayerCount: 2
Fore
SplineSet
790 522.001953125 m 0
 790 546.861328125 810.140625 567.001953125 835 567.001953125 c 0
 859.859375 567.001953125 880 546.861328125 880 522.001953125 c 0
 880 497.142578125 859.859375 477.001953125 835 477.001953125 c 0
 810.140625 477.001953125 790 497.142578125 790 522.001953125 c 0
760 522.001953125 m 0
 760 480.591796875 793.58984375 447.001953125 835 447.001953125 c 0
 876.41015625 447.001953125 910 480.591796875 910 522.001953125 c 0
 910 563.412109375 876.41015625 597.001953125 835 597.001953125 c 0
 793.58984375 597.001953125 760 563.412109375 760 522.001953125 c 0
122.001953125 522.001953125 m 0
 122.001953125 546.861328125 142.142578125 567.001953125 167.001953125 567.001953125 c 0
 191.861328125 567.001953125 212.001953125 546.861328125 212.001953125 522.001953125 c 0
 212.001953125 497.142578125 191.861328125 477.001953125 167.001953125 477.001953125 c 0
 142.142578125 477.001953125 122.001953125 497.142578125 122.001953125 522.001953125 c 0
92.001953125 522.001953125 m 0
 92.001953125 480.591796875 125.591796875 447.001953125 167.001953125 447.001953125 c 0
 208.412109375 447.001953125 242.001953125 480.591796875 242.001953125 522.001953125 c 0
 242.001953125 563.412109375 208.412109375 597.001953125 167.001953125 597.001953125 c 0
 125.591796875 597.001953125 92.001953125 563.412109375 92.001953125 522.001953125 c 0
502.998046875 30 m 0
 382.548828125 30 182.001953125 71.2529296875 182.001953125 345.99609375 c 2
 182.001953125 462.001953125 l 1
 152.001953125 462.001953125 l 1
 152.001953125 345.99609375 l 2
 152.001953125 209.655273438 200.099609375 116.766601562 277.716796875 62.0771484375 c 0
 339.484375 18.5556640625 418.193359375 0 502.998046875 0 c 0
 695.685546875 0 854.00390625 130.647460938 854.00390625 325.99609375 c 2
 854.00390625 462.001953125 l 1
 824.00390625 462.001953125 l 1
 824.00390625 325.99609375 l 2
 824.00390625 149.352539062 682.322265625 30 502.998046875 30 c 0
EndSplineSet
Validated: 5
EndChar

StartChar: V
Encoding: 86 86 21
Width: 1000
Flags: H
LayerCount: 2
Fore
SplineSet
13 9 m 1
 13 585 l 1
 205 585 l 1
 205 201 l 1
 397 201 l 1
 397 585 l 1
 973 585 l 1
 973 9 l 1
 781 9 l 1
 781 393 l 1
 589 393 l 1
 589 9 l 1
 13 9 l 1
493 585 m 0
 440 585 397 628 397 681 c 0
 397 734 440 777 493 777 c 0
 546 777 589 734 589 681 c 0
 589 628 546 585 493 585 c 0
493 -183 m 0
 440 -183 397 -140 397 -87 c 0
 397 -34 440 9 493 9 c 0
 546 9 589 -34 589 -87 c 0
 589 -140 546 -183 493 -183 c 0
493 609 m 0
 533 609 565 641 565 681 c 0
 565 721 533 753 493 753 c 0
 453 753 421 721 421 681 c 0
 421 641 454 609 493 609 c 0
493 -159 m 0
 533 -159 565 -127 565 -87 c 0
 565 -47 533 -15 493 -15 c 0
 453 -15 421 -47 421 -87 c 0
 421 -127 454 -159 493 -159 c 0
EndSplineSet
Validated: 5
EndChar

StartChar: W
Encoding: 87 87 22
Width: 1000
Flags: H
LayerCount: 2
Fore
SplineSet
367.001953125 555 m 0
 367.001953125 579.859375 387.142578125 600 412.001953125 600 c 0
 436.861328125 600 457.001953125 579.859375 457.001953125 555 c 0
 457.001953125 530.140625 436.861328125 510 412.001953125 510 c 0
 387.142578125 510 367.001953125 530.140625 367.001953125 555 c 0
337.001953125 555 m 0
 337.001953125 513.58984375 370.591796875 480 412.001953125 480 c 0
 453.412109375 480 487.001953125 513.58984375 487.001953125 555 c 0
 487.001953125 596.41015625 453.412109375 630 412.001953125 630 c 0
 370.591796875 630 337.001953125 596.41015625 337.001953125 555 c 0
772.001953125 555 m 0
 772.001953125 579.859375 792.142578125 600 817.001953125 600 c 0
 841.861328125 600 862.001953125 579.859375 862.001953125 555 c 0
 862.001953125 530.140625 841.861328125 510 817.001953125 510 c 0
 792.142578125 510 772.001953125 530.140625 772.001953125 555 c 0
742.001953125 555 m 0
 742.001953125 513.58984375 775.591796875 480 817.001953125 480 c 0
 858.412109375 480 892.001953125 513.58984375 892.001953125 555 c 0
 892.001953125 596.41015625 858.412109375 630 817.001953125 630 c 0
 775.591796875 630 742.001953125 596.41015625 742.001953125 555 c 0
132.998046875 32.998046875 m 0
 132.998046875 57.857421875 153.138671875 77.998046875 177.998046875 77.998046875 c 0
 202.857421875 77.998046875 222.998046875 57.857421875 222.998046875 32.998046875 c 0
 222.998046875 8.138671875 202.857421875 -12.001953125 177.998046875 -12.001953125 c 0
 153.138671875 -12.001953125 132.998046875 8.138671875 132.998046875 32.998046875 c 0
102.998046875 32.998046875 m 0
 102.998046875 -8.412109375 136.587890625 -42.001953125 177.998046875 -42.001953125 c 0
 219.408203125 -42.001953125 252.998046875 -8.412109375 252.998046875 32.998046875 c 0
 252.998046875 74.408203125 219.408203125 107.998046875 177.998046875 107.998046875 c 0
 136.587890625 107.998046875 102.998046875 74.408203125 102.998046875 32.998046875 c 0
570 355 m 0
 570 379.859375 590.140625 400 615 400 c 0
 639.859375 400 660 379.859375 660 355 c 0
 660 330.140625 639.859375 310 615 310 c 0
 590.140625 310 570 330.140625 570 355 c 0
540 355 m 0
 540 313.58984375 573.58984375 280 615 280 c 0
 656.41015625 280 690 313.58984375 690 355 c 0
 690 396.41015625 656.41015625 430 615 430 c 0
 573.58984375 430 540 396.41015625 540 355 c 0
480.043945312 587.268554688 m 1
 451.948242188 576.735351562 l 1
 546.948242188 323.737304688 l 1
 575.043945312 334.270507812 l 1
 480.043945312 587.268554688 l 1
177.998046875 -12.001953125 m 1
 177.998046875 -42.001953125 l 1
 345.33203125 -42.001953125 283.146484375 -42.12109375 284.208984375 -42.12109375 c 0
 310.34375 -42.12109375 424.075195312 -32.203125 533.119140625 117.165039062 c 0
 652.23828125 280.330078125 677.176757812 312.239257812 677.176757812 312.239257812 c 1
 676.825195312 311.771484375 806.180664062 491.243164062 806.180664062 491.243164062 c 1
 781.845703125 508.782226562 l 2
 781.827148438 508.756835938 653.174804688 330.220703125 652.823242188 329.752929688 c 0
 652.59375 329.458984375 627.926757812 297.903320312 508.873046875 134.827148438 c 0
 405.938476562 -6.171875 302.919921875 -12.12109375 284.208984375 -12.12109375 c 0
 283.146484375 -12.12109375 347.020507812 -12.001953125 177.998046875 -12.001953125 c 1
EndSplineSet
Validated: 37
EndChar

StartChar: X
Encoding: 88 88 23
Width: 1000
Flags: H
LayerCount: 2
Fore
SplineSet
512.001953125 352.001953125 m 0
 512.001953125 376.861328125 532.142578125 397.001953125 557.001953125 397.001953125 c 0
 581.861328125 397.001953125 602.001953125 376.861328125 602.001953125 352.001953125 c 0
 602.001953125 327.142578125 581.861328125 307.001953125 557.001953125 307.001953125 c 0
 532.142578125 307.001953125 512.001953125 327.142578125 512.001953125 352.001953125 c 0
482.001953125 352.001953125 m 0
 482.001953125 310.591796875 515.591796875 277.001953125 557.001953125 277.001953125 c 0
 598.412109375 277.001953125 632.001953125 310.591796875 632.001953125 352.001953125 c 0
 632.001953125 393.412109375 598.412109375 427.001953125 557.001953125 427.001953125 c 0
 515.591796875 427.001953125 482.001953125 393.412109375 482.001953125 352.001953125 c 0
670 547.001953125 m 0
 670 571.861328125 690.140625 592.001953125 715 592.001953125 c 0
 739.859375 592.001953125 760 571.861328125 760 547.001953125 c 0
 760 522.142578125 739.859375 502.001953125 715 502.001953125 c 0
 690.140625 502.001953125 670 522.142578125 670 547.001953125 c 0
640 547.001953125 m 0
 640 505.591796875 673.58984375 472.001953125 715 472.001953125 c 0
 756.41015625 472.001953125 790 505.591796875 790 547.001953125 c 0
 790 588.412109375 756.41015625 622.001953125 715 622.001953125 c 0
 673.58984375 622.001953125 640 588.412109375 640 547.001953125 c 0
285 482.001953125 m 0
 285 506.861328125 305.140625 527.001953125 330 527.001953125 c 0
 354.859375 527.001953125 375 506.861328125 375 482.001953125 c 0
 375 457.142578125 354.859375 437.001953125 330 437.001953125 c 0
 305.140625 437.001953125 285 457.142578125 285 482.001953125 c 0
255 482.001953125 m 0
 255 440.591796875 288.58984375 407.001953125 330 407.001953125 c 0
 371.41015625 407.001953125 405 440.591796875 405 482.001953125 c 0
 405 523.412109375 371.41015625 557.001953125 330 557.001953125 c 0
 288.58984375 557.001953125 255 523.412109375 255 482.001953125 c 0
789.00390625 52.998046875 m 0
 789.00390625 77.859375 809.134765625 97.998046875 834.00390625 97.998046875 c 0
 858.86328125 97.998046875 879.00390625 77.857421875 879.00390625 52.998046875 c 0
 879.00390625 28.138671875 858.86328125 7.998046875 834.00390625 7.998046875 c 0
 809.134765625 7.998046875 789.00390625 28.13671875 789.00390625 52.998046875 c 0
759.00390625 52.998046875 m 0
 759.00390625 11.58984375 792.583984375 -22.001953125 834.00390625 -22.001953125 c 0
 875.4140625 -22.001953125 909.00390625 11.587890625 909.00390625 52.998046875 c 0
 909.00390625 94.408203125 875.4140625 127.998046875 834.00390625 127.998046875 c 0
 792.583984375 127.998046875 759.00390625 94.40625 759.00390625 52.998046875 c 0
107.998046875 52.998046875 m 0
 107.998046875 77.857421875 128.138671875 97.998046875 152.998046875 97.998046875 c 0
 177.857421875 97.998046875 197.998046875 77.857421875 197.998046875 52.998046875 c 0
 197.998046875 28.138671875 177.857421875 7.998046875 152.998046875 7.998046875 c 0
 128.138671875 7.998046875 107.998046875 28.138671875 107.998046875 52.998046875 c 0
77.998046875 52.998046875 m 0
 77.998046875 11.587890625 111.587890625 -22.001953125 152.998046875 -22.001953125 c 0
 194.408203125 -22.001953125 227.998046875 11.587890625 227.998046875 52.998046875 c 0
 227.998046875 94.408203125 194.408203125 127.998046875 152.998046875 127.998046875 c 0
 111.587890625 127.998046875 77.998046875 94.408203125 77.998046875 52.998046875 c 0
210 47.998046875 m 1
 210 17.998046875 l 1
 777.001953125 17.998046875 l 1
 777.001953125 47.998046875 l 1
 210 47.998046875 l 1
853.525390625 93.9951171875 m 1
 853.525390625 93.9951171875 868.5 119.990234375 868.466796875 120.008789062 c 0
 309.47265625 442.010742188 309.47265625 442.010742188 309.47265625 442.010742188 c 2
 309.47265625 442.010742188 294.498046875 416.015625 294.53125 415.997070312 c 0
 853.525390625 93.9951171875 853.525390625 93.9951171875 853.525390625 93.9951171875 c 1
774.646484375 501.548828125 m 1
 751.36328125 520.459960938 l 1
 591.349609375 323.451171875 l 1
 614.6328125 304.540039062 l 1
 774.646484375 501.548828125 l 1
EndSplineSet
Validated: 5
EndChar

StartChar: Y
Encoding: 89 89 24
Width: 800
Flags: HW
LayerCount: 2
Fore
SplineSet
257.953125 200.98046875 m 1
 257.953125 392.973632812 l 1
 833.931640625 392.973632812 l 1
 833.931640625 200.98046875 l 1
 257.953125 200.98046875 l 1
EndSplineSet
Validated: 524289
EndChar

StartChar: Z
Encoding: 90 90 25
Width: 1000
Flags: H
LayerCount: 2
Fore
SplineSet
450 47.998046875 m 0
 450 72.857421875 470.140625 92.998046875 495 92.998046875 c 0
 519.859375 92.998046875 540 72.857421875 540 47.998046875 c 0
 540 23.138671875 519.859375 2.998046875 495 2.998046875 c 0
 470.140625 2.998046875 450 23.138671875 450 47.998046875 c 0
420 47.998046875 m 0
 420 6.587890625 453.58984375 -27.001953125 495 -27.001953125 c 0
 536.41015625 -27.001953125 570 6.587890625 570 47.998046875 c 0
 570 89.408203125 536.41015625 122.998046875 495 122.998046875 c 0
 453.58984375 122.998046875 420 89.408203125 420 47.998046875 c 0
767.998046875 535 m 0
 767.998046875 559.859375 788.138671875 580 812.998046875 580 c 0
 837.857421875 580 857.998046875 559.859375 857.998046875 535 c 0
 857.998046875 510.140625 837.857421875 490 812.998046875 490 c 0
 788.138671875 490 767.998046875 510.140625 767.998046875 535 c 0
737.998046875 535 m 0
 737.998046875 493.58984375 771.587890625 460 812.998046875 460 c 0
 854.408203125 460 887.998046875 493.58984375 887.998046875 535 c 0
 887.998046875 576.41015625 854.408203125 610 812.998046875 610 c 0
 771.587890625 610 737.998046875 576.41015625 737.998046875 535 c 0
132.998046875 535 m 0
 132.998046875 559.859375 153.138671875 580 177.998046875 580 c 0
 202.857421875 580 222.998046875 559.859375 222.998046875 535 c 0
 222.998046875 510.140625 202.857421875 490 177.998046875 490 c 0
 153.138671875 490 132.998046875 510.140625 132.998046875 535 c 0
102.998046875 535 m 0
 102.998046875 493.58984375 136.587890625 460 177.998046875 460 c 0
 219.408203125 460 252.998046875 493.58984375 252.998046875 535 c 0
 252.998046875 576.41015625 219.408203125 610 177.998046875 610 c 0
 136.587890625 610 102.998046875 576.41015625 102.998046875 535 c 0
450 505.99609375 m 0
 450 530.865234375 470.138671875 550.99609375 495 550.99609375 c 0
 519.861328125 550.99609375 540 530.865234375 540 505.99609375 c 0
 540 481.13671875 519.859375 460.99609375 495 460.99609375 c 0
 470.140625 460.99609375 450 481.13671875 450 505.99609375 c 0
420 505.99609375 m 0
 420 464.5859375 453.58984375 430.99609375 495 430.99609375 c 0
 536.41015625 430.99609375 570 464.5859375 570 505.99609375 c 0
 570 547.416015625 536.408203125 580.99609375 495 580.99609375 c 0
 453.591796875 580.99609375 420 547.416015625 420 505.99609375 c 0
510 445.99609375 m 1
 480 445.99609375 l 1
 480 107.998046875 l 1
 510 107.998046875 l 1
 510 445.99609375 l 1
236.658203125 558.944335938 m 1
 236.658203125 558.944335938 239.30859375 529.060546875 239.337890625 529.063476562 c 0
 814.337890625 580.059570312 814.337890625 580.059570312 814.337890625 580.059570312 c 1
 814.337890625 580.059570312 811.6875 609.943359375 811.658203125 609.940429688 c 0
 236.658203125 558.944335938 236.658203125 558.944335938 236.658203125 558.944335938 c 1
EndSplineSet
Validated: 5
EndChar

StartChar: a
Encoding: 97 97 26
Width: 1000
Flags: H
LayerCount: 2
Fore
SplineSet
235.99609375 535.99609375 m 0
 235.99609375 560.865234375 256.134765625 580.99609375 280.99609375 580.99609375 c 0
 305.8671875 580.99609375 325.99609375 560.8671875 325.99609375 535.99609375 c 0
 325.99609375 511.134765625 305.865234375 490.99609375 280.99609375 490.99609375 c 0
 256.13671875 490.99609375 235.99609375 511.13671875 235.99609375 535.99609375 c 0
205.99609375 535.99609375 m 0
 205.99609375 494.5859375 239.5859375 460.99609375 280.99609375 460.99609375 c 0
 322.416015625 460.99609375 355.99609375 494.587890625 355.99609375 535.99609375 c 0
 355.99609375 577.4140625 322.4140625 610.99609375 280.99609375 610.99609375 c 0
 239.587890625 610.99609375 205.99609375 577.416015625 205.99609375 535.99609375 c 0
674.00390625 64.00390625 m 0
 674.00390625 88.865234375 694.134765625 109.00390625 719.00390625 109.00390625 c 0
 743.86328125 109.00390625 764.00390625 88.86328125 764.00390625 64.00390625 c 0
 764.00390625 39.134765625 743.865234375 19.00390625 719.00390625 19.00390625 c 0
 694.1328125 19.00390625 674.00390625 39.1328125 674.00390625 64.00390625 c 0
644.00390625 64.00390625 m 0
 644.00390625 22.5859375 677.5859375 -10.99609375 719.00390625 -10.99609375 c 0
 760.412109375 -10.99609375 794.00390625 22.583984375 794.00390625 64.00390625 c 0
 794.00390625 105.4140625 760.4140625 139.00390625 719.00390625 139.00390625 c 0
 677.583984375 139.00390625 644.00390625 105.412109375 644.00390625 64.00390625 c 0
256.909179688 498.059570312 m 1
 239.0625 473.950195312 l 1
 751.088867188 94.9384765625 l 1
 768.935546875 119.047851562 l 1
 256.909179688 498.059570312 l 1
810.99609375 505.99609375 m 0
 810.99609375 530.865234375 831.134765625 550.99609375 855.99609375 550.99609375 c 0
 880.8671875 550.99609375 900.99609375 530.8671875 900.99609375 505.99609375 c 0
 900.99609375 481.134765625 880.865234375 460.99609375 855.99609375 460.99609375 c 0
 831.13671875 460.99609375 810.99609375 481.13671875 810.99609375 505.99609375 c 0
780.99609375 505.99609375 m 0
 780.99609375 464.5859375 814.5859375 430.99609375 855.99609375 430.99609375 c 0
 897.416015625 430.99609375 930.99609375 464.587890625 930.99609375 505.99609375 c 0
 930.99609375 547.4140625 897.4140625 580.99609375 855.99609375 580.99609375 c 0
 814.587890625 580.99609375 780.99609375 547.416015625 780.99609375 505.99609375 c 0
542.001953125 312.001953125 m 0
 542.001953125 336.861328125 562.142578125 357.001953125 587.001953125 357.001953125 c 0
 611.861328125 357.001953125 632.001953125 336.861328125 632.001953125 312.001953125 c 0
 632.001953125 287.142578125 611.861328125 267.001953125 587.001953125 267.001953125 c 0
 562.142578125 267.001953125 542.001953125 287.142578125 542.001953125 312.001953125 c 0
512.001953125 312.001953125 m 0
 512.001953125 270.591796875 545.591796875 237.001953125 587.001953125 237.001953125 c 0
 628.412109375 237.001953125 662.001953125 270.591796875 662.001953125 312.001953125 c 0
 662.001953125 353.412109375 628.412109375 387.001953125 587.001953125 387.001953125 c 0
 545.591796875 387.001953125 512.001953125 353.412109375 512.001953125 312.001953125 c 0
630.439453125 297.205078125 m 1
 630.439453125 297.205078125 655.537109375 280.772460938 655.556640625 280.802734375 c 0
 820.556640625 532.794921875 820.556640625 532.794921875 820.556640625 532.794921875 c 1
 820.556640625 532.794921875 795.458984375 549.227539062 795.439453125 549.197265625 c 0
 630.439453125 297.205078125 630.439453125 297.205078125 630.439453125 297.205078125 c 1
367.998046875 287.998046875 m 0
 367.998046875 312.857421875 388.138671875 332.998046875 412.998046875 332.998046875 c 0
 437.857421875 332.998046875 457.998046875 312.857421875 457.998046875 287.998046875 c 0
 457.998046875 263.138671875 437.857421875 242.998046875 412.998046875 242.998046875 c 0
 388.138671875 242.998046875 367.998046875 263.138671875 367.998046875 287.998046875 c 0
337.998046875 287.998046875 m 0
 337.998046875 246.587890625 371.587890625 212.998046875 412.998046875 212.998046875 c 0
 454.408203125 212.998046875 487.998046875 246.587890625 487.998046875 287.998046875 c 0
 487.998046875 329.408203125 454.408203125 362.998046875 412.998046875 362.998046875 c 0
 371.587890625 362.998046875 337.998046875 329.408203125 337.998046875 287.998046875 c 0
99.00390625 94.00390625 m 0
 99.00390625 118.865234375 119.134765625 139.00390625 144.00390625 139.00390625 c 0
 168.86328125 139.00390625 189.00390625 118.86328125 189.00390625 94.00390625 c 0
 189.00390625 69.134765625 168.865234375 49.00390625 144.00390625 49.00390625 c 0
 119.1328125 49.00390625 99.00390625 69.1328125 99.00390625 94.00390625 c 0
69.00390625 94.00390625 m 0
 69.00390625 52.5859375 102.5859375 19.00390625 144.00390625 19.00390625 c 0
 185.412109375 19.00390625 219.00390625 52.583984375 219.00390625 94.00390625 c 0
 219.00390625 135.4140625 185.4140625 169.00390625 144.00390625 169.00390625 c 0
 102.583984375 169.00390625 69.00390625 135.412109375 69.00390625 94.00390625 c 0
186.4453125 79.197265625 m 1
 186.4453125 79.197265625 211.54296875 62.7646484375 211.5625 62.794921875 c 0
 376.5625 314.796875 376.5625 314.796875 376.5625 314.796875 c 2
 376.5625 314.796875 351.46484375 331.229492188 351.4453125 331.19921875 c 0
 186.4453125 79.197265625 186.4453125 79.197265625 186.4453125 79.197265625 c 1
EndSplineSet
Validated: 5
EndChar

StartChar: b
Encoding: 98 98 27
Width: 1000
Flags: H
LayerCount: 2
Fore
SplineSet
244.00390625 487.001953125 m 0
 244.00390625 511.86328125 264.134765625 532.001953125 289.00390625 532.001953125 c 0
 313.86328125 532.001953125 334.00390625 511.861328125 334.00390625 487.001953125 c 0
 334.00390625 462.142578125 313.86328125 442.001953125 289.00390625 442.001953125 c 0
 264.134765625 442.001953125 244.00390625 462.140625 244.00390625 487.001953125 c 0
214.00390625 487.001953125 m 0
 214.00390625 445.59375 247.583984375 412.001953125 289.00390625 412.001953125 c 0
 330.4140625 412.001953125 364.00390625 445.591796875 364.00390625 487.001953125 c 0
 364.00390625 528.412109375 330.4140625 562.001953125 289.00390625 562.001953125 c 0
 247.583984375 562.001953125 214.00390625 528.41015625 214.00390625 487.001953125 c 0
800 487.001953125 m 0
 800 511.861328125 820.140625 532.001953125 845 532.001953125 c 0
 869.859375 532.001953125 890 511.861328125 890 487.001953125 c 0
 890 462.142578125 869.859375 442.001953125 845 442.001953125 c 0
 820.140625 442.001953125 800 462.142578125 800 487.001953125 c 0
770 487.001953125 m 0
 770 445.591796875 803.58984375 412.001953125 845 412.001953125 c 0
 886.41015625 412.001953125 920 445.591796875 920 487.001953125 c 0
 920 528.412109375 886.41015625 562.001953125 845 562.001953125 c 0
 803.58984375 562.001953125 770 528.412109375 770 487.001953125 c 0
800 112.998046875 m 0
 800 137.857421875 820.140625 157.998046875 845 157.998046875 c 0
 869.859375 157.998046875 890 137.857421875 890 112.998046875 c 0
 890 88.138671875 869.859375 67.998046875 845 67.998046875 c 0
 820.140625 67.998046875 800 88.138671875 800 112.998046875 c 0
770 112.998046875 m 0
 770 71.587890625 803.58984375 37.998046875 845 37.998046875 c 0
 886.41015625 37.998046875 920 71.587890625 920 112.998046875 c 0
 920 154.408203125 886.41015625 187.998046875 845 187.998046875 c 0
 803.58984375 187.998046875 770 154.408203125 770 112.998046875 c 0
105.99609375 112.998046875 m 0
 105.99609375 137.857421875 126.13671875 157.998046875 150.99609375 157.998046875 c 0
 175.865234375 157.998046875 195.99609375 137.859375 195.99609375 112.998046875 c 0
 195.99609375 88.13671875 175.865234375 67.998046875 150.99609375 67.998046875 c 0
 126.13671875 67.998046875 105.99609375 88.138671875 105.99609375 112.998046875 c 0
75.99609375 112.998046875 m 0
 75.99609375 71.587890625 109.5859375 37.998046875 150.99609375 37.998046875 c 0
 192.416015625 37.998046875 225.99609375 71.58984375 225.99609375 112.998046875 c 0
 225.99609375 154.40625 192.416015625 187.998046875 150.99609375 187.998046875 c 0
 109.5859375 187.998046875 75.99609375 154.408203125 75.99609375 112.998046875 c 0
622.998046875 304.00390625 m 0
 622.998046875 328.86328125 643.138671875 349.00390625 667.998046875 349.00390625 c 0
 692.857421875 349.00390625 712.998046875 328.86328125 712.998046875 304.00390625 c 0
 712.998046875 279.134765625 692.859375 259.00390625 667.998046875 259.00390625 c 0
 643.13671875 259.00390625 622.998046875 279.134765625 622.998046875 304.00390625 c 0
592.998046875 304.00390625 m 0
 592.998046875 262.583984375 626.58984375 229.00390625 667.998046875 229.00390625 c 0
 709.40625 229.00390625 742.998046875 262.583984375 742.998046875 304.00390625 c 0
 742.998046875 345.4140625 709.408203125 379.00390625 667.998046875 379.00390625 c 0
 626.587890625 379.00390625 592.998046875 345.4140625 592.998046875 304.00390625 c 0
289.00390625 562.001953125 m 1
 289.00390625 532.001953125 l 1
 845 532.001953125 l 1
 845 562.001953125 l 1
 289.00390625 562.001953125 l 1
150.99609375 67.998046875 m 1
 150.99609375 37.998046875 l 1
 845 37.998046875 l 1
 845 67.998046875 l 1
 150.99609375 67.998046875 l 1
710.91015625 347.627929688 m 1
 727.067382812 322.352539062 l 1
 779.729492188 356.028320312 832.422851562 389.671875 885.065429688 423.368164062 c 1
 868.938476562 448.643554688 l 2
 868.938476562 448.643554688 710.940429688 347.647460938 710.91015625 347.627929688 c 1
726.952148438 275.71875 m 1
 726.952148438 275.71875 711.024414062 250.296875 711.055664062 250.27734375 c 0
 869.053710938 151.283203125 869.053710938 151.283203125 869.053710938 151.283203125 c 1
 869.053710938 151.283203125 884.981445312 176.705078125 884.950195312 176.724609375 c 0
 726.952148438 275.71875 726.952148438 275.71875 726.952148438 275.71875 c 1
EndSplineSet
Validated: 5
EndChar

StartChar: c
Encoding: 99 99 28
Width: 1000
Flags: H
LayerCount: 2
Fore
SplineSet
227.998046875 507.001953125 m 0
 227.998046875 531.861328125 248.138671875 552.001953125 272.998046875 552.001953125 c 0
 297.857421875 552.001953125 317.998046875 531.861328125 317.998046875 507.001953125 c 0
 317.998046875 482.142578125 297.857421875 462.001953125 272.998046875 462.001953125 c 0
 248.138671875 462.001953125 227.998046875 482.142578125 227.998046875 507.001953125 c 0
197.998046875 507.001953125 m 0
 197.998046875 465.591796875 231.587890625 432.001953125 272.998046875 432.001953125 c 0
 314.408203125 432.001953125 347.998046875 465.591796875 347.998046875 507.001953125 c 0
 347.998046875 548.412109375 314.408203125 582.001953125 272.998046875 582.001953125 c 0
 231.587890625 582.001953125 197.998046875 548.412109375 197.998046875 507.001953125 c 0
790.99609375 94.00390625 m 0
 790.99609375 118.86328125 811.13671875 139.00390625 835.99609375 139.00390625 c 0
 860.865234375 139.00390625 880.99609375 118.865234375 880.99609375 94.00390625 c 0
 880.99609375 69.1328125 860.8671875 49.00390625 835.99609375 49.00390625 c 0
 811.134765625 49.00390625 790.99609375 69.134765625 790.99609375 94.00390625 c 0
760.99609375 94.00390625 m 0
 760.99609375 52.583984375 794.587890625 19.00390625 835.99609375 19.00390625 c 0
 877.4140625 19.00390625 910.99609375 52.5859375 910.99609375 94.00390625 c 0
 910.99609375 135.412109375 877.416015625 169.00390625 835.99609375 169.00390625 c 0
 794.5859375 169.00390625 760.99609375 135.4140625 760.99609375 94.00390625 c 0
107.998046875 94.00390625 m 0
 107.998046875 118.86328125 128.138671875 139.00390625 152.998046875 139.00390625 c 0
 177.857421875 139.00390625 197.998046875 118.86328125 197.998046875 94.00390625 c 0
 197.998046875 69.134765625 177.859375 49.00390625 152.998046875 49.00390625 c 0
 128.13671875 49.00390625 107.998046875 69.134765625 107.998046875 94.00390625 c 0
77.998046875 94.00390625 m 0
 77.998046875 52.583984375 111.58984375 19.00390625 152.998046875 19.00390625 c 0
 194.40625 19.00390625 227.998046875 52.583984375 227.998046875 94.00390625 c 0
 227.998046875 135.4140625 194.408203125 169.00390625 152.998046875 169.00390625 c 0
 111.587890625 169.00390625 77.998046875 135.4140625 77.998046875 94.00390625 c 0
672.001953125 507.001953125 m 0
 672.001953125 531.861328125 692.142578125 552.001953125 717.001953125 552.001953125 c 0
 741.861328125 552.001953125 762.001953125 531.861328125 762.001953125 507.001953125 c 0
 762.001953125 482.142578125 741.861328125 462.001953125 717.001953125 462.001953125 c 0
 692.142578125 462.001953125 672.001953125 482.142578125 672.001953125 507.001953125 c 0
642.001953125 507.001953125 m 0
 642.001953125 465.591796875 675.591796875 432.001953125 717.001953125 432.001953125 c 0
 758.412109375 432.001953125 792.001953125 465.591796875 792.001953125 507.001953125 c 0
 792.001953125 548.412109375 758.412109375 582.001953125 717.001953125 582.001953125 c 0
 675.591796875 582.001953125 642.001953125 548.412109375 642.001953125 507.001953125 c 0
272.998046875 582.001953125 m 1
 272.998046875 552.001953125 l 1
 717.001953125 552.001953125 l 1
 717.001953125 582.001953125 l 1
 272.998046875 582.001953125 l 1
227.998046875 507.001953125 m 1
 197.998046875 507.001953125 l 1
 197.998046875 94.00390625 l 1
 227.998046875 94.00390625 l 1
 227.998046875 507.001953125 l 1
790.99609375 515 m 1
 760.99609375 515 l 1
 760.99609375 94.00390625 l 1
 790.99609375 94.00390625 l 1
 790.99609375 515 l 1
EndSplineSet
Validated: 5
EndChar

StartChar: d
Encoding: 100 100 29
Width: 1000
Flags: H
LayerCount: 2
Fore
SplineSet
697.998046875 484.00390625 m 0
 697.998046875 508.86328125 718.138671875 529.00390625 742.998046875 529.00390625 c 0
 767.857421875 529.00390625 787.998046875 508.86328125 787.998046875 484.00390625 c 0
 787.998046875 459.134765625 767.859375 439.00390625 742.998046875 439.00390625 c 0
 718.13671875 439.00390625 697.998046875 459.134765625 697.998046875 484.00390625 c 0
667.998046875 484.00390625 m 0
 667.998046875 442.583984375 701.58984375 409.00390625 742.998046875 409.00390625 c 0
 784.40625 409.00390625 817.998046875 442.583984375 817.998046875 484.00390625 c 0
 817.998046875 525.4140625 784.408203125 559.00390625 742.998046875 559.00390625 c 0
 701.587890625 559.00390625 667.998046875 525.4140625 667.998046875 484.00390625 c 0
207.001953125 527.001953125 m 0
 207.001953125 551.861328125 227.142578125 572.001953125 252.001953125 572.001953125 c 0
 276.861328125 572.001953125 297.001953125 551.861328125 297.001953125 527.001953125 c 0
 297.001953125 502.142578125 276.861328125 482.001953125 252.001953125 482.001953125 c 0
 227.142578125 482.001953125 207.001953125 502.142578125 207.001953125 527.001953125 c 0
177.001953125 527.001953125 m 0
 177.001953125 485.591796875 210.591796875 452.001953125 252.001953125 452.001953125 c 0
 293.412109375 452.001953125 327.001953125 485.591796875 327.001953125 527.001953125 c 0
 327.001953125 568.412109375 293.412109375 602.001953125 252.001953125 602.001953125 c 0
 210.591796875 602.001953125 177.001953125 568.412109375 177.001953125 527.001953125 c 0
697.998046875 64.00390625 m 0
 697.998046875 88.86328125 718.138671875 109.00390625 742.998046875 109.00390625 c 0
 767.857421875 109.00390625 787.998046875 88.86328125 787.998046875 64.00390625 c 0
 787.998046875 39.134765625 767.859375 19.00390625 742.998046875 19.00390625 c 0
 718.13671875 19.00390625 697.998046875 39.134765625 697.998046875 64.00390625 c 0
667.998046875 64.00390625 m 0
 667.998046875 22.583984375 701.58984375 -10.99609375 742.998046875 -10.99609375 c 0
 784.40625 -10.99609375 817.998046875 22.583984375 817.998046875 64.00390625 c 0
 817.998046875 105.4140625 784.408203125 139.00390625 742.998046875 139.00390625 c 0
 701.587890625 139.00390625 667.998046875 105.4140625 667.998046875 64.00390625 c 0
817.998046875 484.00390625 m 1
 787.998046875 484.00390625 l 1
 787.998046875 64.00390625 l 1
 817.998046875 64.00390625 l 1
 817.998046875 484.00390625 l 1
745.336914062 529.185546875 m 1
 745.336914062 529.185546875 740.688476562 558.827148438 740.659179688 558.822265625 c 0
 249.663085938 481.8203125 249.663085938 481.8203125 249.663085938 481.8203125 c 1
 249.663085938 481.8203125 254.311523438 452.178710938 254.340820312 452.18359375 c 0
 745.336914062 529.185546875 745.336914062 529.185546875 745.336914062 529.185546875 c 1
EndSplineSet
Validated: 5
EndChar

StartChar: e
Encoding: 101 101 30
Width: 1000
Flags: H
LayerCount: 2
Fore
SplineSet
792.998046875 49.00390625 m 0
 792.998046875 73.86328125 813.138671875 94.00390625 837.998046875 94.00390625 c 0
 862.857421875 94.00390625 882.998046875 73.86328125 882.998046875 49.00390625 c 0
 882.998046875 24.134765625 862.859375 4.00390625 837.998046875 4.00390625 c 0
 813.13671875 4.00390625 792.998046875 24.134765625 792.998046875 49.00390625 c 0
762.998046875 49.00390625 m 0
 762.998046875 7.583984375 796.58984375 -25.99609375 837.998046875 -25.99609375 c 0
 879.40625 -25.99609375 912.998046875 7.583984375 912.998046875 49.00390625 c 0
 912.998046875 90.4140625 879.408203125 124.00390625 837.998046875 124.00390625 c 0
 796.587890625 124.00390625 762.998046875 90.4140625 762.998046875 49.00390625 c 0
112.998046875 49.00390625 m 0
 112.998046875 73.86328125 133.138671875 94.00390625 157.998046875 94.00390625 c 0
 182.857421875 94.00390625 202.998046875 73.86328125 202.998046875 49.00390625 c 0
 202.998046875 24.134765625 182.859375 4.00390625 157.998046875 4.00390625 c 0
 133.13671875 4.00390625 112.998046875 24.134765625 112.998046875 49.00390625 c 0
82.998046875 49.00390625 m 0
 82.998046875 7.583984375 116.58984375 -25.99609375 157.998046875 -25.99609375 c 0
 199.40625 -25.99609375 232.998046875 7.583984375 232.998046875 49.00390625 c 0
 232.998046875 90.4140625 199.408203125 124.00390625 157.998046875 124.00390625 c 0
 116.587890625 124.00390625 82.998046875 90.4140625 82.998046875 49.00390625 c 0
515.99609375 269.00390625 m 0
 515.99609375 293.86328125 536.13671875 314.00390625 560.99609375 314.00390625 c 0
 585.865234375 314.00390625 605.99609375 293.865234375 605.99609375 269.00390625 c 0
 605.99609375 244.1328125 585.8671875 224.00390625 560.99609375 224.00390625 c 0
 536.134765625 224.00390625 515.99609375 244.134765625 515.99609375 269.00390625 c 0
485.99609375 269.00390625 m 0
 485.99609375 227.583984375 519.587890625 194.00390625 560.99609375 194.00390625 c 0
 602.4140625 194.00390625 635.99609375 227.5859375 635.99609375 269.00390625 c 0
 635.99609375 310.412109375 602.416015625 344.00390625 560.99609375 344.00390625 c 0
 519.5859375 344.00390625 485.99609375 310.4140625 485.99609375 269.00390625 c 0
792.998046875 542.001953125 m 0
 792.998046875 566.861328125 813.138671875 587.001953125 837.998046875 587.001953125 c 0
 862.857421875 587.001953125 882.998046875 566.861328125 882.998046875 542.001953125 c 0
 882.998046875 517.142578125 862.857421875 497.001953125 837.998046875 497.001953125 c 0
 813.138671875 497.001953125 792.998046875 517.142578125 792.998046875 542.001953125 c 0
762.998046875 542.001953125 m 0
 762.998046875 500.591796875 796.587890625 467.001953125 837.998046875 467.001953125 c 0
 879.408203125 467.001953125 912.998046875 500.591796875 912.998046875 542.001953125 c 0
 912.998046875 583.412109375 879.408203125 617.001953125 837.998046875 617.001953125 c 0
 796.587890625 617.001953125 762.998046875 583.412109375 762.998046875 542.001953125 c 0
217.998046875 542.001953125 m 0
 217.998046875 566.861328125 238.138671875 587.001953125 262.998046875 587.001953125 c 0
 287.857421875 587.001953125 307.998046875 566.861328125 307.998046875 542.001953125 c 0
 307.998046875 517.142578125 287.857421875 497.001953125 262.998046875 497.001953125 c 0
 238.138671875 497.001953125 217.998046875 517.142578125 217.998046875 542.001953125 c 0
187.998046875 542.001953125 m 0
 187.998046875 500.591796875 221.587890625 467.001953125 262.998046875 467.001953125 c 0
 304.408203125 467.001953125 337.998046875 500.591796875 337.998046875 542.001953125 c 0
 337.998046875 583.412109375 304.408203125 617.001953125 262.998046875 617.001953125 c 0
 221.587890625 617.001953125 187.998046875 583.412109375 187.998046875 542.001953125 c 0
235.328125 506.479492188 m 1
 235.328125 506.479492188 218.647460938 481.546875 218.67578125 481.528320312 c 0
 502.669921875 291.528320312 502.669921875 291.528320312 502.669921875 291.528320312 c 2
 502.669921875 291.528320312 519.350585938 316.4609375 519.322265625 316.479492188 c 0
 235.328125 506.479492188 235.328125 506.479492188 235.328125 506.479492188 c 1
812.633789062 483.426757812 m 1
 791.370117188 504.581054688 l 1
 600.364257812 312.579101562 l 1
 621.627929688 291.424804688 l 1
 812.633789062 483.426757812 l 1
620.3359375 249.47265625 m 1
 620.3359375 249.47265625 603.638671875 224.55078125 603.66796875 224.53125 c 0
 803.66796875 90.52734375 803.66796875 90.52734375 803.66796875 90.52734375 c 2
 803.66796875 90.52734375 820.365234375 115.44921875 820.3359375 115.46875 c 0
 620.3359375 249.47265625 620.3359375 249.47265625 620.3359375 249.47265625 c 1
518.31640625 221.90625 m 1
 503.708984375 248.111328125 l 1
 405.046875 193.1015625 306.354492188 138.122070312 207.712890625 83.09375 c 1
 222.287109375 56.888671875 l 1
 222.287109375 56.888671875 518.283203125 221.888671875 518.31640625 221.90625 c 1
212.998046875 40 m 1
 212.998046875 10 l 1
 782.998046875 10 l 1
 782.998046875 40 l 1
 212.998046875 40 l 1
EndSplineSet
Validated: 5
EndChar

StartChar: f
Encoding: 102 102 31
Width: 700
Flags: HW
LayerCount: 2
Fore
SplineSet
301.926757812 65 m 0
 301.926757812 89.859375 322.067382812 110 346.926757812 110 c 0
 371.786132812 110 391.926757812 89.859375 391.926757812 65 c 0
 391.926757812 40.140625 371.786132812 20 346.926757812 20 c 0
 322.067382812 20 301.926757812 40.140625 301.926757812 65 c 0
271.926757812 65 m 0
 271.926757812 23.58984375 305.516601562 -10 346.926757812 -10 c 0
 388.336914062 -10 421.926757812 23.58984375 421.926757812 65 c 0
 421.926757812 106.41015625 388.336914062 140 346.926757812 140 c 0
 305.516601562 140 271.926757812 106.41015625 271.926757812 65 c 0
421.926757812 550.99609375 m 0
 421.926757812 575.865234375 442.065429688 595.99609375 466.926757812 595.99609375 c 0
 491.788085938 595.99609375 511.926757812 575.865234375 511.926757812 550.99609375 c 0
 511.926757812 526.13671875 491.786132812 505.99609375 466.926757812 505.99609375 c 0
 442.067382812 505.99609375 421.926757812 526.13671875 421.926757812 550.99609375 c 0
391.926757812 550.99609375 m 0
 391.926757812 509.5859375 425.516601562 475.99609375 466.926757812 475.99609375 c 0
 508.336914062 475.99609375 541.926757812 509.5859375 541.926757812 550.99609375 c 0
 541.926757812 592.416015625 508.334960938 625.99609375 466.926757812 625.99609375 c 0
 425.518554688 625.99609375 391.926757812 592.416015625 391.926757812 550.99609375 c 0
421.926757812 550.99609375 m 1
 391.926757812 550.99609375 l 1
 391.926757812 65 l 1
 421.926757812 65 l 1
 421.926757812 550.99609375 l 1
EndSplineSet
EndChar

StartChar: g
Encoding: 103 103 32
Width: 1000
Flags: H
LayerCount: 2
Fore
SplineSet
682.001953125 607.998046875 m 0
 682.001953125 632.857421875 702.142578125 652.998046875 727.001953125 652.998046875 c 0
 751.861328125 652.998046875 772.001953125 632.857421875 772.001953125 607.998046875 c 0
 772.001953125 583.138671875 751.861328125 562.998046875 727.001953125 562.998046875 c 0
 702.142578125 562.998046875 682.001953125 583.138671875 682.001953125 607.998046875 c 0
652.001953125 607.998046875 m 0
 652.001953125 566.587890625 685.591796875 532.998046875 727.001953125 532.998046875 c 0
 768.412109375 532.998046875 802.001953125 566.587890625 802.001953125 607.998046875 c 0
 802.001953125 649.408203125 768.412109375 682.998046875 727.001953125 682.998046875 c 0
 685.591796875 682.998046875 652.001953125 649.408203125 652.001953125 607.998046875 c 0
337.001953125 317.001953125 m 1
 337.001953125 287.001953125 l 1
 619.00390625 287.001953125 l 1
 619.00390625 317.001953125 l 1
 337.001953125 317.001953125 l 1
754.00390625 302.001953125 m 1
 724.00390625 302.001953125 l 1
 724.00390625 -7.001953125 l 1
 754.00390625 -7.001953125 l 1
 754.00390625 302.001953125 l 1
682.56640625 600.583984375 m 1
 653.42578125 593.432617188 l 1
 720.431640625 320.421875 l 1
 749.572265625 327.573242188 l 1
 682.56640625 600.583984375 l 1
232.001953125 302.001953125 m 0
 232.001953125 326.861328125 252.142578125 347.001953125 277.001953125 347.001953125 c 0
 301.861328125 347.001953125 322.001953125 326.861328125 322.001953125 302.001953125 c 0
 322.001953125 277.142578125 301.861328125 257.001953125 277.001953125 257.001953125 c 0
 252.142578125 257.001953125 232.001953125 277.142578125 232.001953125 302.001953125 c 0
202.001953125 302.001953125 m 0
 202.001953125 260.591796875 235.591796875 227.001953125 277.001953125 227.001953125 c 0
 318.412109375 227.001953125 352.001953125 260.591796875 352.001953125 302.001953125 c 0
 352.001953125 343.412109375 318.412109375 377.001953125 277.001953125 377.001953125 c 0
 235.591796875 377.001953125 202.001953125 343.412109375 202.001953125 302.001953125 c 0
634.00390625 302.001953125 m 0
 634.00390625 326.86328125 654.134765625 347.001953125 679.00390625 347.001953125 c 0
 703.86328125 347.001953125 724.00390625 326.861328125 724.00390625 302.001953125 c 0
 724.00390625 277.142578125 703.86328125 257.001953125 679.00390625 257.001953125 c 0
 654.134765625 257.001953125 634.00390625 277.140625 634.00390625 302.001953125 c 0
604.00390625 302.001953125 m 0
 604.00390625 260.59375 637.583984375 227.001953125 679.00390625 227.001953125 c 0
 720.4140625 227.001953125 754.00390625 260.591796875 754.00390625 302.001953125 c 0
 754.00390625 343.412109375 720.4140625 377.001953125 679.00390625 377.001953125 c 0
 637.583984375 377.001953125 604.00390625 343.41015625 604.00390625 302.001953125 c 0
634.00390625 -7.001953125 m 0
 634.00390625 17.859375 654.134765625 37.998046875 679.00390625 37.998046875 c 0
 703.86328125 37.998046875 724.00390625 17.857421875 724.00390625 -7.001953125 c 0
 724.00390625 -31.861328125 703.86328125 -52.001953125 679.00390625 -52.001953125 c 0
 654.134765625 -52.001953125 634.00390625 -31.86328125 634.00390625 -7.001953125 c 0
604.00390625 -7.001953125 m 0
 604.00390625 -48.41015625 637.583984375 -82.001953125 679.00390625 -82.001953125 c 0
 720.4140625 -82.001953125 754.00390625 -48.412109375 754.00390625 -7.001953125 c 0
 754.00390625 34.408203125 720.4140625 67.998046875 679.00390625 67.998046875 c 0
 637.583984375 67.998046875 604.00390625 34.40625 604.00390625 -7.001953125 c 0
EndSplineSet
Validated: 5
EndChar

StartChar: h
Encoding: 104 104 33
Width: 1000
Flags: H
LayerCount: 2
Fore
SplineSet
357.998046875 542.001953125 m 0
 357.998046875 566.861328125 378.138671875 587.001953125 402.998046875 587.001953125 c 0
 427.857421875 587.001953125 447.998046875 566.861328125 447.998046875 542.001953125 c 0
 447.998046875 517.142578125 427.857421875 497.001953125 402.998046875 497.001953125 c 0
 378.138671875 497.001953125 357.998046875 517.142578125 357.998046875 542.001953125 c 0
327.998046875 542.001953125 m 0
 327.998046875 500.591796875 361.587890625 467.001953125 402.998046875 467.001953125 c 0
 444.408203125 467.001953125 477.998046875 500.591796875 477.998046875 542.001953125 c 0
 477.998046875 583.412109375 444.408203125 617.001953125 402.998046875 617.001953125 c 0
 361.587890625 617.001953125 327.998046875 583.412109375 327.998046875 542.001953125 c 0
130.99609375 542.001953125 m 0
 130.99609375 566.861328125 151.13671875 587.001953125 175.99609375 587.001953125 c 0
 200.865234375 587.001953125 220.99609375 566.86328125 220.99609375 542.001953125 c 0
 220.99609375 517.140625 200.865234375 497.001953125 175.99609375 497.001953125 c 0
 151.13671875 497.001953125 130.99609375 517.142578125 130.99609375 542.001953125 c 0
100.99609375 542.001953125 m 0
 100.99609375 500.591796875 134.5859375 467.001953125 175.99609375 467.001953125 c 0
 217.416015625 467.001953125 250.99609375 500.59375 250.99609375 542.001953125 c 0
 250.99609375 583.41015625 217.416015625 617.001953125 175.99609375 617.001953125 c 0
 134.5859375 617.001953125 100.99609375 583.412109375 100.99609375 542.001953125 c 0
765 542.001953125 m 0
 765 566.861328125 785.140625 587.001953125 810 587.001953125 c 0
 834.859375 587.001953125 855 566.861328125 855 542.001953125 c 0
 855 517.142578125 834.859375 497.001953125 810 497.001953125 c 0
 785.140625 497.001953125 765 517.142578125 765 542.001953125 c 0
735 542.001953125 m 0
 735 500.591796875 768.58984375 467.001953125 810 467.001953125 c 0
 851.41015625 467.001953125 885 500.591796875 885 542.001953125 c 0
 885 583.412109375 851.41015625 617.001953125 810 617.001953125 c 0
 768.58984375 617.001953125 735 583.412109375 735 542.001953125 c 0
357.998046875 52.001953125 m 0
 357.998046875 76.861328125 378.138671875 97.001953125 402.998046875 97.001953125 c 0
 427.857421875 97.001953125 447.998046875 76.861328125 447.998046875 52.001953125 c 0
 447.998046875 27.142578125 427.857421875 7.001953125 402.998046875 7.001953125 c 0
 378.138671875 7.001953125 357.998046875 27.142578125 357.998046875 52.001953125 c 0
327.998046875 52.001953125 m 0
 327.998046875 10.591796875 361.587890625 -22.998046875 402.998046875 -22.998046875 c 0
 444.408203125 -22.998046875 477.998046875 10.591796875 477.998046875 52.001953125 c 0
 477.998046875 93.412109375 444.408203125 127.001953125 402.998046875 127.001953125 c 0
 361.587890625 127.001953125 327.998046875 93.412109375 327.998046875 52.001953125 c 0
765 52.001953125 m 0
 765 76.861328125 785.140625 97.001953125 810 97.001953125 c 0
 834.859375 97.001953125 855 76.861328125 855 52.001953125 c 0
 855 27.142578125 834.859375 7.001953125 810 7.001953125 c 0
 785.140625 7.001953125 765 27.142578125 765 52.001953125 c 0
735 52.001953125 m 0
 735 10.591796875 768.58984375 -22.998046875 810 -22.998046875 c 0
 851.41015625 -22.998046875 885 10.591796875 885 52.001953125 c 0
 885 93.412109375 851.41015625 127.001953125 810 127.001953125 c 0
 768.58984375 127.001953125 735 93.412109375 735 52.001953125 c 0
175.99609375 617.001953125 m 1
 175.99609375 587.001953125 l 1
 814.00390625 587.001953125 l 1
 814.00390625 617.001953125 l 1
 175.99609375 617.001953125 l 1
885 542.001953125 m 1
 855 542.001953125 l 1
 855 52.001953125 l 1
 885 52.001953125 l 1
 885 542.001953125 l 1
477.998046875 542.001953125 m 1
 447.998046875 542.001953125 l 1
 447.998046875 52.001953125 l 1
 477.998046875 52.001953125 l 1
 477.998046875 542.001953125 l 1
EndSplineSet
Validated: 5
EndChar

StartChar: i
Encoding: 105 105 34
Width: 1000
Flags: H
LayerCount: 2
Fore
SplineSet
570 515.99609375 m 0
 570 540.865234375 590.138671875 560.99609375 615 560.99609375 c 0
 639.861328125 560.99609375 660 540.865234375 660 515.99609375 c 0
 660 491.13671875 639.859375 470.99609375 615 470.99609375 c 0
 590.140625 470.99609375 570 491.13671875 570 515.99609375 c 0
540 515.99609375 m 0
 540 474.5859375 573.58984375 440.99609375 615 440.99609375 c 0
 656.41015625 440.99609375 690 474.5859375 690 515.99609375 c 0
 690 557.416015625 656.408203125 590.99609375 615 590.99609375 c 0
 573.591796875 590.99609375 540 557.416015625 540 515.99609375 c 0
795.99609375 77.001953125 m 0
 795.99609375 101.861328125 816.13671875 122.001953125 840.99609375 122.001953125 c 0
 865.865234375 122.001953125 885.99609375 101.86328125 885.99609375 77.001953125 c 0
 885.99609375 52.140625 865.865234375 32.001953125 840.99609375 32.001953125 c 0
 816.13671875 32.001953125 795.99609375 52.142578125 795.99609375 77.001953125 c 0
765.99609375 77.001953125 m 0
 765.99609375 35.591796875 799.5859375 2.001953125 840.99609375 2.001953125 c 0
 882.416015625 2.001953125 915.99609375 35.59375 915.99609375 77.001953125 c 0
 915.99609375 118.41015625 882.416015625 152.001953125 840.99609375 152.001953125 c 0
 799.5859375 152.001953125 765.99609375 118.412109375 765.99609375 77.001953125 c 0
109.00390625 77.001953125 m 0
 109.00390625 101.86328125 129.134765625 122.001953125 154.00390625 122.001953125 c 0
 178.86328125 122.001953125 199.00390625 101.861328125 199.00390625 77.001953125 c 0
 199.00390625 52.142578125 178.86328125 32.001953125 154.00390625 32.001953125 c 0
 129.134765625 32.001953125 109.00390625 52.140625 109.00390625 77.001953125 c 0
79.00390625 77.001953125 m 0
 79.00390625 35.59375 112.583984375 2.001953125 154.00390625 2.001953125 c 0
 195.4140625 2.001953125 229.00390625 35.591796875 229.00390625 77.001953125 c 0
 229.00390625 118.412109375 195.4140625 152.001953125 154.00390625 152.001953125 c 0
 112.583984375 152.001953125 79.00390625 118.41015625 79.00390625 77.001953125 c 0
214.00390625 92.001953125 m 1
 214.00390625 62.001953125 l 1
 780.99609375 62.001953125 l 1
 780.99609375 92.001953125 l 1
 214.00390625 92.001953125 l 1
809.63671875 128.1796875 m 1
 836.375 141.7890625 l 1
 779.711914062 253.137695312 723.021484375 364.458007812 666.375 475.82421875 c 1
 639.62109375 462.21484375 l 1
 809.63671875 128.1796875 l 1
575.619140625 471.412109375 m 1
 554.380859375 492.591796875 l 1
 189.380859375 126.5859375 l 1
 210.619140625 105.40625 l 1
 575.619140625 471.412109375 l 1
EndSplineSet
Validated: 5
EndChar

StartChar: j
Encoding: 106 106 35
Width: 1000
Flags: H
LayerCount: 2
Fore
SplineSet
72.001953125 495 m 0
 72.001953125 519.859375 92.142578125 540 117.001953125 540 c 0
 141.861328125 540 162.001953125 519.859375 162.001953125 495 c 0
 162.001953125 470.140625 141.861328125 450 117.001953125 450 c 0
 92.142578125 450 72.001953125 470.140625 72.001953125 495 c 0
42.001953125 495 m 0
 42.001953125 453.58984375 75.591796875 420 117.001953125 420 c 0
 158.412109375 420 192.001953125 453.58984375 192.001953125 495 c 0
 192.001953125 536.41015625 158.412109375 570 117.001953125 570 c 0
 75.591796875 570 42.001953125 536.41015625 42.001953125 495 c 0
450 495 m 0
 450 519.859375 470.140625 540 495 540 c 0
 519.859375 540 540 519.859375 540 495 c 0
 540 470.140625 519.859375 450 495 450 c 0
 470.140625 450 450 470.140625 450 495 c 0
420 495 m 0
 420 453.58984375 453.58984375 420 495 420 c 0
 536.41015625 420 570 453.58984375 570 495 c 0
 570 536.41015625 536.41015625 570 495 570 c 0
 453.58984375 570 420 536.41015625 420 495 c 0
832.001953125 495 m 0
 832.001953125 519.859375 852.142578125 540 877.001953125 540 c 0
 901.861328125 540 922.001953125 519.859375 922.001953125 495 c 0
 922.001953125 470.140625 901.861328125 450 877.001953125 450 c 0
 852.142578125 450 832.001953125 470.140625 832.001953125 495 c 0
802.001953125 495 m 0
 802.001953125 453.58984375 835.591796875 420 877.001953125 420 c 0
 918.412109375 420 952.001953125 453.58984375 952.001953125 495 c 0
 952.001953125 536.41015625 918.412109375 570 877.001953125 570 c 0
 835.591796875 570 802.001953125 536.41015625 802.001953125 495 c 0
450 90 m 0
 450 114.859375 470.140625 135 495 135 c 0
 519.859375 135 540 114.859375 540 90 c 0
 540 65.140625 519.859375 45 495 45 c 0
 470.140625 45 450 65.140625 450 90 c 0
420 90 m 0
 420 48.58984375 453.58984375 15 495 15 c 0
 536.41015625 15 570 48.58984375 570 90 c 0
 570 131.41015625 536.41015625 165 495 165 c 0
 453.58984375 165 420 131.41015625 420 90 c 0
510 435 m 1
 480 435 l 1
 480 150 l 1
 510 150 l 1
 510 435 l 1
102.001953125 275.830078125 m 2
 99.66796875 233.122070312 120.4296875 77.00390625 321.731445312 77.00390625 c 0
 322.001953125 77.001953125 434.729492188 75.001953125 434.729492188 75.001953125 c 1
 435.270507812 104.998046875 l 1
 322.272460938 107 l 2
 217.884765625 107 172.501953125 150.830078125 151.040039062 192.610351562 c 0
 133.58203125 226.599609375 131.9296875 261.033203125 131.9296875 271.249023438 c 0
 131.9296875 272.88671875 131.979492188 167.622070312 131.979492188 435 c 1
 102.001953125 435 l 1
 102.001953125 275.830078125 l 2
857.998046875 274.169921875 m 2
 858.096679688 273.337890625 859.609375 232.8125 838.959960938 192.610351562 c 0
 817.498046875 150.830078125 772.115234375 107 667.727539062 107 c 1
 667.998046875 107.001953125 554.729492188 104.998046875 554.729492188 104.998046875 c 1
 555.260742188 75.001953125 l 2
 555.270507812 75.001953125 667.998046875 77.001953125 668.268554688 77.00390625 c 0
 782.438476562 77.00390625 839.359375 127.7265625 865.663085938 178.93359375 c 0
 886.416015625 219.334960938 888.0703125 258.290039062 888.0703125 271.249023438 c 0
 888.0703125 272.88671875 887.975585938 171.022460938 887.975585938 435 c 1
 857.998046875 435 l 1
 857.998046875 274.169921875 l 2
EndSplineSet
Validated: 37
EndChar

StartChar: k
Encoding: 107 107 36
Width: 1000
Flags: H
LayerCount: 2
Fore
SplineSet
200 507.998046875 m 0
 200 532.857421875 220.140625 552.998046875 245 552.998046875 c 0
 269.859375 552.998046875 290 532.857421875 290 507.998046875 c 0
 290 483.138671875 269.859375 462.998046875 245 462.998046875 c 0
 220.140625 462.998046875 200 483.138671875 200 507.998046875 c 0
170 507.998046875 m 0
 170 466.587890625 203.58984375 432.998046875 245 432.998046875 c 0
 286.41015625 432.998046875 320 466.587890625 320 507.998046875 c 0
 320 549.408203125 286.41015625 582.998046875 245 582.998046875 c 0
 203.58984375 582.998046875 170 549.408203125 170 507.998046875 c 0
580 507.998046875 m 0
 580 532.857421875 600.140625 552.998046875 625 552.998046875 c 0
 649.859375 552.998046875 670 532.857421875 670 507.998046875 c 0
 670 483.138671875 649.859375 462.998046875 625 462.998046875 c 0
 600.140625 462.998046875 580 483.138671875 580 507.998046875 c 0
550 507.998046875 m 0
 550 466.587890625 583.58984375 432.998046875 625 432.998046875 c 0
 666.41015625 432.998046875 700 466.587890625 700 507.998046875 c 0
 700 549.408203125 666.41015625 582.998046875 625 582.998046875 c 0
 583.58984375 582.998046875 550 549.408203125 550 507.998046875 c 0
502.998046875 72.001953125 m 0
 502.998046875 96.861328125 523.138671875 117.001953125 547.998046875 117.001953125 c 0
 572.857421875 117.001953125 592.998046875 96.861328125 592.998046875 72.001953125 c 0
 592.998046875 47.142578125 572.857421875 27.001953125 547.998046875 27.001953125 c 0
 523.138671875 27.001953125 502.998046875 47.142578125 502.998046875 72.001953125 c 0
472.998046875 72.001953125 m 0
 472.998046875 30.591796875 506.587890625 -2.998046875 547.998046875 -2.998046875 c 0
 589.408203125 -2.998046875 622.998046875 30.591796875 622.998046875 72.001953125 c 0
 622.998046875 113.412109375 589.408203125 147.001953125 547.998046875 147.001953125 c 0
 506.587890625 147.001953125 472.998046875 113.412109375 472.998046875 72.001953125 c 0
702.001953125 247.998046875 m 0
 702.001953125 272.857421875 722.142578125 292.998046875 747.001953125 292.998046875 c 0
 771.861328125 292.998046875 792.001953125 272.857421875 792.001953125 247.998046875 c 0
 792.001953125 223.138671875 771.861328125 202.998046875 747.001953125 202.998046875 c 0
 722.142578125 202.998046875 702.001953125 223.138671875 702.001953125 247.998046875 c 0
672.001953125 247.998046875 m 0
 672.001953125 206.587890625 705.591796875 172.998046875 747.001953125 172.998046875 c 0
 788.412109375 172.998046875 822.001953125 206.587890625 822.001953125 247.998046875 c 0
 822.001953125 289.408203125 788.412109375 322.998046875 747.001953125 322.998046875 c 0
 705.591796875 322.998046875 672.001953125 289.408203125 672.001953125 247.998046875 c 0
305 522.998046875 m 1
 305 492.998046875 l 1
 565 492.998046875 l 1
 565 522.998046875 l 1
 305 522.998046875 l 1
730 410 m 2
 730 307.998046875 l 1
 760 307.998046875 l 1
 760 410 l 2
 760 481.194335938 707.564453125 503.018554688 683.174804688 504.955078125 c 1
 680.80078125 475.047851562 l 2
 680.80078125 475.047851562 689.248046875 474.740234375 701.00390625 468.208984375 c 0
 714.298828125 460.822265625 730 446.314453125 730 410 c 2
593.071289062 72.513671875 m 1
 593.071289062 72.513671875 622.927734375 75.4638671875 622.924804688 75.494140625 c 0
 580.922851562 500.494140625 580.922851562 500.494140625 580.922851562 500.494140625 c 1
 580.922851562 500.494140625 551.06640625 497.543945312 551.069335938 497.513671875 c 0
 593.071289062 72.513671875 593.071289062 72.513671875 593.071289062 72.513671875 c 1
EndSplineSet
Validated: 5
EndChar

StartChar: l
Encoding: 108 108 37
Width: 1000
Flags: H
LayerCount: 2
Fore
SplineSet
119.00390625 60 m 0
 119.00390625 84.861328125 139.134765625 105 164.00390625 105 c 0
 188.86328125 105 209.00390625 84.859375 209.00390625 60 c 0
 209.00390625 35.140625 188.86328125 15 164.00390625 15 c 0
 139.134765625 15 119.00390625 35.138671875 119.00390625 60 c 0
89.00390625 60 m 0
 89.00390625 18.591796875 122.583984375 -15 164.00390625 -15 c 0
 205.4140625 -15 239.00390625 18.58984375 239.00390625 60 c 0
 239.00390625 101.41015625 205.4140625 135 164.00390625 135 c 0
 122.583984375 135 89.00390625 101.408203125 89.00390625 60 c 0
782.998046875 220 m 0
 782.998046875 244.859375 803.138671875 265 827.998046875 265 c 0
 852.857421875 265 872.998046875 244.859375 872.998046875 220 c 0
 872.998046875 195.140625 852.857421875 175 827.998046875 175 c 0
 803.138671875 175 782.998046875 195.140625 782.998046875 220 c 0
752.998046875 220 m 0
 752.998046875 178.58984375 786.587890625 145 827.998046875 145 c 0
 869.408203125 145 902.998046875 178.58984375 902.998046875 220 c 0
 902.998046875 261.41015625 869.408203125 295 827.998046875 295 c 0
 786.587890625 295 752.998046875 261.41015625 752.998046875 220 c 0
119.00390625 320 m 0
 119.00390625 344.861328125 139.134765625 365 164.00390625 365 c 0
 188.86328125 365 209.00390625 344.859375 209.00390625 320 c 0
 209.00390625 295.140625 188.86328125 275 164.00390625 275 c 0
 139.134765625 275 119.00390625 295.138671875 119.00390625 320 c 0
89.00390625 320 m 0
 89.00390625 278.591796875 122.583984375 245 164.00390625 245 c 0
 205.4140625 245 239.00390625 278.58984375 239.00390625 320 c 0
 239.00390625 361.41015625 205.4140625 395 164.00390625 395 c 0
 122.583984375 395 89.00390625 361.408203125 89.00390625 320 c 0
739.00390625 527.001953125 m 0
 739.00390625 551.86328125 759.134765625 572.001953125 784.00390625 572.001953125 c 0
 808.86328125 572.001953125 829.00390625 551.861328125 829.00390625 527.001953125 c 0
 829.00390625 502.142578125 808.86328125 482.001953125 784.00390625 482.001953125 c 0
 759.134765625 482.001953125 739.00390625 502.140625 739.00390625 527.001953125 c 0
709.00390625 527.001953125 m 0
 709.00390625 485.59375 742.583984375 452.001953125 784.00390625 452.001953125 c 0
 825.4140625 452.001953125 859.00390625 485.591796875 859.00390625 527.001953125 c 0
 859.00390625 568.412109375 825.4140625 602.001953125 784.00390625 602.001953125 c 0
 742.583984375 602.001953125 709.00390625 568.41015625 709.00390625 527.001953125 c 0
730.703125 498.752929688 m 1
 721.2890625 527.243164062 l 1
 213.291015625 359.245117188 l 1
 222.705078125 330.754882812 l 1
 730.703125 498.752929688 l 1
221.92578125 317.969726562 m 1
 220.06640625 288.026367188 l 1
 791.072265625 253.026367188 l 1
 792.931640625 282.969726562 l 1
 221.92578125 317.969726562 l 1
163.09765625 134.97265625 m 1
 164.885742188 105.025390625 l 1
 834.91015625 145.02734375 l 1
 833.122070312 174.974609375 l 1
 163.09765625 134.97265625 l 1
EndSplineSet
Validated: 5
EndChar

StartChar: m
Encoding: 109 109 38
Width: 1000
Flags: H
LayerCount: 2
Fore
SplineSet
290.99609375 50.99609375 m 0
 290.99609375 75.865234375 311.134765625 95.99609375 335.99609375 95.99609375 c 0
 360.8671875 95.99609375 380.99609375 75.8671875 380.99609375 50.99609375 c 0
 380.99609375 26.134765625 360.865234375 5.99609375 335.99609375 5.99609375 c 0
 311.13671875 5.99609375 290.99609375 26.13671875 290.99609375 50.99609375 c 0
260.99609375 50.99609375 m 0
 260.99609375 9.5859375 294.5859375 -24.00390625 335.99609375 -24.00390625 c 0
 377.416015625 -24.00390625 410.99609375 9.587890625 410.99609375 50.99609375 c 0
 410.99609375 92.4140625 377.4140625 125.99609375 335.99609375 125.99609375 c 0
 294.587890625 125.99609375 260.99609375 92.416015625 260.99609375 50.99609375 c 0
417.998046875 332.998046875 m 0
 417.998046875 357.857421875 438.138671875 377.998046875 462.998046875 377.998046875 c 0
 487.857421875 377.998046875 507.998046875 357.857421875 507.998046875 332.998046875 c 0
 507.998046875 308.138671875 487.857421875 287.998046875 462.998046875 287.998046875 c 0
 438.138671875 287.998046875 417.998046875 308.138671875 417.998046875 332.998046875 c 0
387.998046875 332.998046875 m 0
 387.998046875 291.587890625 421.587890625 257.998046875 462.998046875 257.998046875 c 0
 504.408203125 257.998046875 537.998046875 291.587890625 537.998046875 332.998046875 c 0
 537.998046875 374.408203125 504.408203125 407.998046875 462.998046875 407.998046875 c 0
 421.587890625 407.998046875 387.998046875 374.408203125 387.998046875 332.998046875 c 0
692.001953125 532.001953125 m 0
 692.001953125 556.861328125 712.142578125 577.001953125 737.001953125 577.001953125 c 0
 761.861328125 577.001953125 782.001953125 556.861328125 782.001953125 532.001953125 c 0
 782.001953125 507.142578125 761.861328125 487.001953125 737.001953125 487.001953125 c 0
 712.142578125 487.001953125 692.001953125 507.142578125 692.001953125 532.001953125 c 0
662.001953125 532.001953125 m 0
 662.001953125 490.591796875 695.591796875 457.001953125 737.001953125 457.001953125 c 0
 778.412109375 457.001953125 812.001953125 490.591796875 812.001953125 532.001953125 c 0
 812.001953125 573.412109375 778.412109375 607.001953125 737.001953125 607.001953125 c 0
 695.591796875 607.001953125 662.001953125 573.412109375 662.001953125 532.001953125 c 0
217.001953125 532.001953125 m 0
 217.001953125 556.861328125 237.142578125 577.001953125 262.001953125 577.001953125 c 0
 286.861328125 577.001953125 307.001953125 556.861328125 307.001953125 532.001953125 c 0
 307.001953125 507.142578125 286.861328125 487.001953125 262.001953125 487.001953125 c 0
 237.142578125 487.001953125 217.001953125 507.142578125 217.001953125 532.001953125 c 0
187.001953125 532.001953125 m 0
 187.001953125 490.591796875 220.591796875 457.001953125 262.001953125 457.001953125 c 0
 303.412109375 457.001953125 337.001953125 490.591796875 337.001953125 532.001953125 c 0
 337.001953125 573.412109375 303.412109375 607.001953125 262.001953125 607.001953125 c 0
 220.591796875 607.001953125 187.001953125 573.412109375 187.001953125 532.001953125 c 0
692.001953125 50.99609375 m 0
 692.001953125 75.865234375 712.140625 95.99609375 737.001953125 95.99609375 c 0
 761.86328125 95.99609375 782.001953125 75.865234375 782.001953125 50.99609375 c 0
 782.001953125 26.13671875 761.861328125 5.99609375 737.001953125 5.99609375 c 0
 712.142578125 5.99609375 692.001953125 26.13671875 692.001953125 50.99609375 c 0
662.001953125 50.99609375 m 0
 662.001953125 9.5859375 695.591796875 -24.00390625 737.001953125 -24.00390625 c 0
 778.412109375 -24.00390625 812.001953125 9.5859375 812.001953125 50.99609375 c 0
 812.001953125 92.416015625 778.41015625 125.99609375 737.001953125 125.99609375 c 0
 695.59375 125.99609375 662.001953125 92.416015625 662.001953125 50.99609375 c 0
316.4609375 501.739257812 m 1
 295.529296875 480.255859375 l 1
 412.533203125 366.258789062 l 1
 433.46484375 387.7421875 l 1
 316.4609375 501.739257812 l 1
281.817382812 103.010742188 m 1
 302.186523438 80.9931640625 l 1
 719.188476562 466.989257812 l 1
 698.819335938 489.006835938 l 1
 281.817382812 103.010742188 l 1
811.8828125 521.099609375 m 1
 782.125 524.927734375 l 1
 764.459960938 387.58203125 746.786132812 250.24609375 729.126953125 112.89453125 c 1
 758.880859375 109.06640625 l 1
 811.8828125 521.099609375 l 1
EndSplineSet
Validated: 5
EndChar

StartChar: n
Encoding: 110 110 39
Width: 1000
Flags: H
LayerCount: 2
Fore
SplineSet
70 137.001953125 m 0
 70 161.861328125 90.140625 182.001953125 115 182.001953125 c 0
 139.859375 182.001953125 160 161.861328125 160 137.001953125 c 0
 160 112.142578125 139.859375 92.001953125 115 92.001953125 c 0
 90.140625 92.001953125 70 112.142578125 70 137.001953125 c 0
40 137.001953125 m 0
 40 95.591796875 73.58984375 62.001953125 115 62.001953125 c 0
 156.41015625 62.001953125 190 95.591796875 190 137.001953125 c 0
 190 178.412109375 156.41015625 212.001953125 115 212.001953125 c 0
 73.58984375 212.001953125 40 178.412109375 40 137.001953125 c 0
837.998046875 137.001953125 m 0
 837.998046875 161.861328125 858.138671875 182.001953125 882.998046875 182.001953125 c 0
 907.857421875 182.001953125 927.998046875 161.861328125 927.998046875 137.001953125 c 0
 927.998046875 112.142578125 907.857421875 92.001953125 882.998046875 92.001953125 c 0
 858.138671875 92.001953125 837.998046875 112.142578125 837.998046875 137.001953125 c 0
807.998046875 137.001953125 m 0
 807.998046875 95.591796875 841.587890625 62.001953125 882.998046875 62.001953125 c 0
 924.408203125 62.001953125 957.998046875 95.591796875 957.998046875 137.001953125 c 0
 957.998046875 178.412109375 924.408203125 212.001953125 882.998046875 212.001953125 c 0
 841.587890625 212.001953125 807.998046875 178.412109375 807.998046875 137.001953125 c 0
430 462.001953125 m 0
 430 486.861328125 450.140625 507.001953125 475 507.001953125 c 0
 499.859375 507.001953125 520 486.861328125 520 462.001953125 c 0
 520 437.142578125 499.859375 417.001953125 475 417.001953125 c 0
 450.140625 417.001953125 430 437.142578125 430 462.001953125 c 0
400 462.001953125 m 0
 400 420.591796875 433.58984375 387.001953125 475 387.001953125 c 0
 516.41015625 387.001953125 550 420.591796875 550 462.001953125 c 0
 550 503.412109375 516.41015625 537.001953125 475 537.001953125 c 0
 433.58984375 537.001953125 400 503.412109375 400 462.001953125 c 0
115 92.001953125 m 1
 115 62.001953125 l 1
 882.998046875 62.001953125 l 1
 882.998046875 92.001953125 l 1
 115 92.001953125 l 1
917.663085938 166.262695312 m 1
 936.359375 189.71875 l 1
 522.336914062 519.733398438 l 1
 503.640625 496.27734375 l 1
 917.663085938 166.262695312 l 1
EndSplineSet
Validated: 5
EndChar

StartChar: o
Encoding: 111 111 40
Width: 700
Flags: HW
LayerCount: 2
Fore
SplineSet
360.935546875 552.001953125 m 0
 360.935546875 576.86328125 381.06640625 597.001953125 405.935546875 597.001953125 c 0
 430.794921875 597.001953125 450.935546875 576.861328125 450.935546875 552.001953125 c 0
 450.935546875 527.142578125 430.794921875 507.001953125 405.935546875 507.001953125 c 0
 381.06640625 507.001953125 360.935546875 527.140625 360.935546875 552.001953125 c 0
330.935546875 552.001953125 m 0
 330.935546875 510.59375 364.515625 477.001953125 405.935546875 477.001953125 c 0
 447.345703125 477.001953125 480.935546875 510.591796875 480.935546875 552.001953125 c 0
 480.935546875 593.412109375 447.345703125 627.001953125 405.935546875 627.001953125 c 0
 364.515625 627.001953125 330.935546875 593.41015625 330.935546875 552.001953125 c 0
405.935546875 17.001953125 m 0
 309.16796875 17.001953125 229.9296875 148.491210938 229.9296875 307.001953125 c 0
 229.9296875 465.534179688 309.180664062 597.001953125 405.935546875 597.001953125 c 0
 502.692382812 597.001953125 581.931640625 465.513671875 581.931640625 307.001953125 c 0
 581.931640625 148.4765625 502.684570312 17.001953125 405.935546875 17.001953125 c 0
405.935546875 627.001953125 m 0
 292.14453125 627.001953125 199.9296875 485.7578125 199.9296875 307.001953125 c 0
 199.9296875 128.245117188 292.145507812 -12.998046875 405.935546875 -12.998046875 c 0
 519.716796875 -12.998046875 611.931640625 128.24609375 611.931640625 307.001953125 c 0
 611.931640625 485.752929688 519.719726562 627.001953125 405.935546875 627.001953125 c 0
EndSplineSet
Validated: 524293
EndChar

StartChar: p
Encoding: 112 112 41
Width: 1000
Flags: H
LayerCount: 2
Fore
SplineSet
535 420 m 0
 535 444.859375 555.140625 465 580 465 c 0
 604.859375 465 625 444.859375 625 420 c 0
 625 395.140625 604.859375 375 580 375 c 0
 555.140625 375 535 395.140625 535 420 c 0
505 420 m 0
 505 378.58984375 538.58984375 345 580 345 c 0
 621.41015625 345 655 378.58984375 655 420 c 0
 655 461.41015625 621.41015625 495 580 495 c 0
 538.58984375 495 505 461.41015625 505 420 c 0
62.998046875 165 m 0
 62.998046875 189.859375 83.138671875 210 107.998046875 210 c 0
 132.857421875 210 152.998046875 189.859375 152.998046875 165 c 0
 152.998046875 140.140625 132.857421875 120 107.998046875 120 c 0
 83.138671875 120 62.998046875 140.140625 62.998046875 165 c 0
32.998046875 165 m 0
 32.998046875 123.58984375 66.587890625 90 107.998046875 90 c 0
 149.408203125 90 182.998046875 123.58984375 182.998046875 165 c 0
 182.998046875 206.41015625 149.408203125 240 107.998046875 240 c 0
 66.587890625 240 32.998046875 206.41015625 32.998046875 165 c 0
960.147460938 425.377929688 m 0
 960.147460938 491.077148438 920.172851562 605 740 605 c 0
 546.885742188 605 508.376953125 463.610351562 505.0625 427.376953125 c 1
 534.9375 424.615234375 l 1
 534.9375 424.615234375 537.109375 452.845703125 557.172851562 486.767578125 c 0
 581.408203125 527.744140625 631.12890625 575 740 575 c 0
 844.028320312 575 889.290039062 535.7734375 910.703125 498.474609375 c 0
 917.415039062 486.783203125 930.02734375 464.814453125 930.02734375 417.767578125 c 0
 930.02734375 387.538085938 918.028320312 72.8369140625 420.352539062 19.91015625 c 0
 404.454101562 18.12109375 207.057617188 2.2080078125 134.569335938 113.1875 c 1
 109.434570312 96.8125 l 1
 137.796875 53.3896484375 181.178710938 27.2548828125 225.631835938 11.580078125 c 0
 281.302734375 -8.048828125 339.748046875 -11.8701171875 378.5859375 -11.8701171875 c 0
 405.663085938 -11.8701171875 423.234375 -9.9560546875 423.651367188 -9.91015625 c 0
 711.256835938 20.67578125 846.21875 137.895507812 908.166992188 243.51953125 c 0
 929.431640625 279.776367188 960.147460938 345.88671875 960.147460938 425.377929688 c 0
930.009765625 419.447265625 m 1
 930.009765625 419.447265625 930.009765625 419.458007812 930.009765625 419.447265625 c 1
EndSplineSet
Validated: 37
EndChar

StartChar: q
Encoding: 113 113 42
Width: 1000
Flags: H
LayerCount: 2
Fore
SplineSet
185 480 m 0
 185 504.859375 205.140625 525 230 525 c 0
 254.859375 525 275 504.859375 275 480 c 0
 275 455.140625 254.859375 435 230 435 c 0
 205.140625 435 185 455.140625 185 480 c 0
155 480 m 0
 155 438.58984375 188.58984375 405 230 405 c 0
 271.41015625 405 305 438.58984375 305 480 c 0
 305 521.41015625 271.41015625 555 230 555 c 0
 188.58984375 555 155 521.41015625 155 480 c 0
185 145.99609375 m 0
 185 170.865234375 205.138671875 190.99609375 230 190.99609375 c 0
 254.861328125 190.99609375 275 170.865234375 275 145.99609375 c 0
 275 121.13671875 254.859375 100.99609375 230 100.99609375 c 0
 205.140625 100.99609375 185 121.13671875 185 145.99609375 c 0
155 145.99609375 m 0
 155 104.5859375 188.58984375 70.99609375 230 70.99609375 c 0
 271.41015625 70.99609375 305 104.5859375 305 145.99609375 c 0
 305 187.416015625 271.408203125 220.99609375 230 220.99609375 c 0
 188.591796875 220.99609375 155 187.416015625 155 145.99609375 c 0
286.041015625 509.850585938 m 2
 290.491210938 514.694335938 398.791992188 627.551757812 586.34765625 620.013671875 c 0
 753.399414062 612.831054688 817.634765625 488.983398438 817.634765625 389.3125 c 0
 817.634765625 325.916992188 773.819335938 5.0830078125 427.948242188 -21.033203125 c 0
 425.907226562 -21.197265625 282.696289062 -30.03515625 256.66796875 91.158203125 c 1
 227.33203125 84.857421875 l 1
 257.88671875 -57.4111328125 417.426757812 -51.8388671875 430.059570312 -50.958984375 c 0
 799.6484375 -23.052734375 847.634765625 319.703125 847.634765625 389.3125 c 0
 847.634765625 501.127929688 773.0625 642.013671875 587.65625 649.986328125 c 0
 581.186523438 650.24609375 574.758789062 650.374023438 568.458984375 650.374023438 c 0
 374.561523438 650.374023438 265.174804688 531.47265625 263.953125 530.142578125 c 1
 286.041015625 509.850585938 l 2
EndSplineSet
Validated: 37
EndChar

StartChar: r
Encoding: 114 114 43
Width: 1000
Flags: H
LayerCount: 2
Fore
SplineSet
680 37.998046875 m 0
 680 62.857421875 700.140625 82.998046875 725 82.998046875 c 0
 749.859375 82.998046875 770 62.857421875 770 37.998046875 c 0
 770 13.138671875 749.859375 -7.001953125 725 -7.001953125 c 0
 700.140625 -7.001953125 680 13.138671875 680 37.998046875 c 0
650 37.998046875 m 0
 650 -3.412109375 683.58984375 -37.001953125 725 -37.001953125 c 0
 766.41015625 -37.001953125 800 -3.412109375 800 37.998046875 c 0
 800 79.408203125 766.41015625 112.998046875 725 112.998046875 c 0
 683.58984375 112.998046875 650 79.408203125 650 37.998046875 c 0
227.001953125 555 m 0
 227.001953125 579.859375 247.142578125 600 272.001953125 600 c 0
 296.861328125 600 317.001953125 579.859375 317.001953125 555 c 0
 317.001953125 530.140625 296.861328125 510 272.001953125 510 c 0
 247.142578125 510 227.001953125 530.140625 227.001953125 555 c 0
197.001953125 555 m 0
 197.001953125 513.58984375 230.591796875 480 272.001953125 480 c 0
 313.412109375 480 347.001953125 513.58984375 347.001953125 555 c 0
 347.001953125 596.41015625 313.412109375 630 272.001953125 630 c 0
 230.591796875 630 197.001953125 596.41015625 197.001953125 555 c 0
740 470 m 2
 740 563.59375 649.071289062 570.944335938 640 570 c 2
 332.001953125 570 l 1
 332.001953125 540 l 1
 640 540 l 1
 640 540 710 540 710 470 c 2
 710 97.998046875 l 1
 740 97.998046875 l 1
 740 470 l 2
EndSplineSet
Validated: 37
EndChar

StartChar: s
Encoding: 115 115 44
Width: 1000
Flags: H
LayerCount: 2
Fore
SplineSet
785 517.001953125 m 0
 785 541.861328125 805.140625 562.001953125 830 562.001953125 c 0
 854.859375 562.001953125 875 541.861328125 875 517.001953125 c 0
 875 492.142578125 854.859375 472.001953125 830 472.001953125 c 0
 805.140625 472.001953125 785 492.142578125 785 517.001953125 c 0
755 517.001953125 m 0
 755 475.591796875 788.58984375 442.001953125 830 442.001953125 c 0
 871.41015625 442.001953125 905 475.591796875 905 517.001953125 c 0
 905 558.412109375 871.41015625 592.001953125 830 592.001953125 c 0
 788.58984375 592.001953125 755 558.412109375 755 517.001953125 c 0
115.99609375 517.001953125 m 0
 115.99609375 541.861328125 136.13671875 562.001953125 160.99609375 562.001953125 c 0
 185.865234375 562.001953125 205.99609375 541.86328125 205.99609375 517.001953125 c 0
 205.99609375 492.140625 185.865234375 472.001953125 160.99609375 472.001953125 c 0
 136.13671875 472.001953125 115.99609375 492.142578125 115.99609375 517.001953125 c 0
85.99609375 517.001953125 m 0
 85.99609375 475.591796875 119.5859375 442.001953125 160.99609375 442.001953125 c 0
 202.416015625 442.001953125 235.99609375 475.59375 235.99609375 517.001953125 c 0
 235.99609375 558.41015625 202.416015625 592.001953125 160.99609375 592.001953125 c 0
 119.5859375 592.001953125 85.99609375 558.412109375 85.99609375 517.001953125 c 0
497.001953125 25 m 0
 376.541992188 25 175.99609375 66.2548828125 175.99609375 340.99609375 c 2
 175.99609375 457.001953125 l 1
 145.99609375 457.001953125 l 1
 145.99609375 340.99609375 l 2
 145.99609375 204.655273438 194.09375 111.766601562 271.712890625 57.0771484375 c 0
 333.481445312 13.5556640625 412.193359375 -5 497.001953125 -5 c 0
 689.6796875 -5 847.998046875 125.647460938 847.998046875 320.99609375 c 2
 847.998046875 457.001953125 l 1
 817.998046875 457.001953125 l 1
 817.998046875 320.99609375 l 2
 817.998046875 144.352539062 676.31640625 25 497.001953125 25 c 0
219.509765625 531.928710938 m 1
 219.509765625 531.928710938 222.452148438 502.072265625 222.482421875 502.075195312 c 0
 831.486328125 562.075195312 831.486328125 562.075195312 831.486328125 562.075195312 c 2
 831.486328125 562.075195312 828.543945312 591.931640625 828.513671875 591.928710938 c 0
 219.509765625 531.928710938 219.509765625 531.928710938 219.509765625 531.928710938 c 1
EndSplineSet
Validated: 5
EndChar

StartChar: t
Encoding: 116 116 45
Width: 1000
Flags: H
LayerCount: 2
Fore
SplineSet
110.99609375 109.00390625 m 0
 110.99609375 133.86328125 131.13671875 154.00390625 155.99609375 154.00390625 c 0
 180.865234375 154.00390625 200.99609375 133.865234375 200.99609375 109.00390625 c 0
 200.99609375 84.1328125 180.8671875 64.00390625 155.99609375 64.00390625 c 0
 131.134765625 64.00390625 110.99609375 84.134765625 110.99609375 109.00390625 c 0
80.99609375 109.00390625 m 0
 80.99609375 67.583984375 114.587890625 34.00390625 155.99609375 34.00390625 c 0
 197.4140625 34.00390625 230.99609375 67.5859375 230.99609375 109.00390625 c 0
 230.99609375 150.412109375 197.416015625 184.00390625 155.99609375 184.00390625 c 0
 114.5859375 184.00390625 80.99609375 150.4140625 80.99609375 109.00390625 c 0
200 557.001953125 m 0
 200 581.861328125 220.140625 602.001953125 245 602.001953125 c 0
 269.859375 602.001953125 290 581.861328125 290 557.001953125 c 0
 290 532.142578125 269.859375 512.001953125 245 512.001953125 c 0
 220.140625 512.001953125 200 532.142578125 200 557.001953125 c 0
170 557.001953125 m 0
 170 515.591796875 203.58984375 482.001953125 245 482.001953125 c 0
 286.41015625 482.001953125 320 515.591796875 320 557.001953125 c 0
 320 598.412109375 286.41015625 632.001953125 245 632.001953125 c 0
 203.58984375 632.001953125 170 598.412109375 170 557.001953125 c 0
795 557.001953125 m 0
 795 581.861328125 815.140625 602.001953125 840 602.001953125 c 0
 864.859375 602.001953125 885 581.861328125 885 557.001953125 c 0
 885 532.142578125 864.859375 512.001953125 840 512.001953125 c 0
 815.140625 512.001953125 795 532.142578125 795 557.001953125 c 0
765 557.001953125 m 0
 765 515.591796875 798.58984375 482.001953125 840 482.001953125 c 0
 881.41015625 482.001953125 915 515.591796875 915 557.001953125 c 0
 915 598.412109375 881.41015625 632.001953125 840 632.001953125 c 0
 798.58984375 632.001953125 765 598.412109375 765 557.001953125 c 0
795 35.99609375 m 0
 795 60.865234375 815.138671875 80.99609375 840 80.99609375 c 0
 864.861328125 80.99609375 885 60.865234375 885 35.99609375 c 0
 885 11.13671875 864.859375 -9.00390625 840 -9.00390625 c 0
 815.140625 -9.00390625 795 11.13671875 795 35.99609375 c 0
765 35.99609375 m 0
 765 -5.4140625 798.58984375 -39.00390625 840 -39.00390625 c 0
 881.41015625 -39.00390625 915 -5.4140625 915 35.99609375 c 0
 915 77.416015625 881.408203125 110.99609375 840 110.99609375 c 0
 798.591796875 110.99609375 765 77.416015625 765 35.99609375 c 0
305 572.001953125 m 1
 305 542.001953125 l 1
 780 542.001953125 l 1
 780 572.001953125 l 1
 305 572.001953125 l 1
855 497.001953125 m 1
 825 497.001953125 l 1
 825 95.99609375 l 1
 855 95.99609375 l 1
 855 497.001953125 l 1
802.115234375 505.380859375 m 1
 785.923828125 530.634765625 l 1
 197.90625 153.626953125 l 1
 214.076171875 128.359375 l 1
 802.115234375 505.380859375 l 1
EndSplineSet
Validated: 5
EndChar

StartChar: u
Encoding: 117 117 46
Width: 1000
Flags: H
LayerCount: 2
Fore
SplineSet
790 522.001953125 m 0
 790 546.861328125 810.140625 567.001953125 835 567.001953125 c 0
 859.859375 567.001953125 880 546.861328125 880 522.001953125 c 0
 880 497.142578125 859.859375 477.001953125 835 477.001953125 c 0
 810.140625 477.001953125 790 497.142578125 790 522.001953125 c 0
760 522.001953125 m 0
 760 480.591796875 793.58984375 447.001953125 835 447.001953125 c 0
 876.41015625 447.001953125 910 480.591796875 910 522.001953125 c 0
 910 563.412109375 876.41015625 597.001953125 835 597.001953125 c 0
 793.58984375 597.001953125 760 563.412109375 760 522.001953125 c 0
122.001953125 522.001953125 m 0
 122.001953125 546.861328125 142.142578125 567.001953125 167.001953125 567.001953125 c 0
 191.861328125 567.001953125 212.001953125 546.861328125 212.001953125 522.001953125 c 0
 212.001953125 497.142578125 191.861328125 477.001953125 167.001953125 477.001953125 c 0
 142.142578125 477.001953125 122.001953125 497.142578125 122.001953125 522.001953125 c 0
92.001953125 522.001953125 m 0
 92.001953125 480.591796875 125.591796875 447.001953125 167.001953125 447.001953125 c 0
 208.412109375 447.001953125 242.001953125 480.591796875 242.001953125 522.001953125 c 0
 242.001953125 563.412109375 208.412109375 597.001953125 167.001953125 597.001953125 c 0
 125.591796875 597.001953125 92.001953125 563.412109375 92.001953125 522.001953125 c 0
502.998046875 30 m 0
 382.548828125 30 182.001953125 71.2529296875 182.001953125 345.99609375 c 2
 182.001953125 462.001953125 l 1
 152.001953125 462.001953125 l 1
 152.001953125 345.99609375 l 2
 152.001953125 209.655273438 200.099609375 116.766601562 277.716796875 62.0771484375 c 0
 339.484375 18.5556640625 418.193359375 0 502.998046875 0 c 0
 695.685546875 0 854.00390625 130.647460938 854.00390625 325.99609375 c 2
 854.00390625 462.001953125 l 1
 824.00390625 462.001953125 l 1
 824.00390625 325.99609375 l 2
 824.00390625 149.352539062 682.322265625 30 502.998046875 30 c 0
EndSplineSet
Validated: 5
EndChar

StartChar: v
Encoding: 118 118 47
Width: 1000
Flags: H
LayerCount: 2
Fore
SplineSet
13 9 m 1
 13 585 l 1
 205 585 l 1
 205 201 l 1
 397 201 l 1
 397 585 l 1
 973 585 l 1
 973 9 l 1
 781 9 l 1
 781 393 l 1
 589 393 l 1
 589 9 l 1
 13 9 l 1
493 585 m 0
 440 585 397 628 397 681 c 0
 397 734 440 777 493 777 c 0
 546 777 589 734 589 681 c 0
 589 628 546 585 493 585 c 0
493 -183 m 0
 440 -183 397 -140 397 -87 c 0
 397 -34 440 9 493 9 c 0
 546 9 589 -34 589 -87 c 0
 589 -140 546 -183 493 -183 c 0
493 609 m 0
 533 609 565 641 565 681 c 0
 565 721 533 753 493 753 c 0
 453 753 421 721 421 681 c 0
 421 641 454 609 493 609 c 0
493 -159 m 0
 533 -159 565 -127 565 -87 c 0
 565 -47 533 -15 493 -15 c 0
 453 -15 421 -47 421 -87 c 0
 421 -127 454 -159 493 -159 c 0
EndSplineSet
Validated: 5
EndChar

StartChar: w
Encoding: 119 119 48
Width: 1000
Flags: H
LayerCount: 2
Fore
SplineSet
367.001953125 555 m 0
 367.001953125 579.859375 387.142578125 600 412.001953125 600 c 0
 436.861328125 600 457.001953125 579.859375 457.001953125 555 c 0
 457.001953125 530.140625 436.861328125 510 412.001953125 510 c 0
 387.142578125 510 367.001953125 530.140625 367.001953125 555 c 0
337.001953125 555 m 0
 337.001953125 513.58984375 370.591796875 480 412.001953125 480 c 0
 453.412109375 480 487.001953125 513.58984375 487.001953125 555 c 0
 487.001953125 596.41015625 453.412109375 630 412.001953125 630 c 0
 370.591796875 630 337.001953125 596.41015625 337.001953125 555 c 0
772.001953125 555 m 0
 772.001953125 579.859375 792.142578125 600 817.001953125 600 c 0
 841.861328125 600 862.001953125 579.859375 862.001953125 555 c 0
 862.001953125 530.140625 841.861328125 510 817.001953125 510 c 0
 792.142578125 510 772.001953125 530.140625 772.001953125 555 c 0
742.001953125 555 m 0
 742.001953125 513.58984375 775.591796875 480 817.001953125 480 c 0
 858.412109375 480 892.001953125 513.58984375 892.001953125 555 c 0
 892.001953125 596.41015625 858.412109375 630 817.001953125 630 c 0
 775.591796875 630 742.001953125 596.41015625 742.001953125 555 c 0
132.998046875 32.998046875 m 0
 132.998046875 57.857421875 153.138671875 77.998046875 177.998046875 77.998046875 c 0
 202.857421875 77.998046875 222.998046875 57.857421875 222.998046875 32.998046875 c 0
 222.998046875 8.138671875 202.857421875 -12.001953125 177.998046875 -12.001953125 c 0
 153.138671875 -12.001953125 132.998046875 8.138671875 132.998046875 32.998046875 c 0
102.998046875 32.998046875 m 0
 102.998046875 -8.412109375 136.587890625 -42.001953125 177.998046875 -42.001953125 c 0
 219.408203125 -42.001953125 252.998046875 -8.412109375 252.998046875 32.998046875 c 0
 252.998046875 74.408203125 219.408203125 107.998046875 177.998046875 107.998046875 c 0
 136.587890625 107.998046875 102.998046875 74.408203125 102.998046875 32.998046875 c 0
570 355 m 0
 570 379.859375 590.140625 400 615 400 c 0
 639.859375 400 660 379.859375 660 355 c 0
 660 330.140625 639.859375 310 615 310 c 0
 590.140625 310 570 330.140625 570 355 c 0
540 355 m 0
 540 313.58984375 573.58984375 280 615 280 c 0
 656.41015625 280 690 313.58984375 690 355 c 0
 690 396.41015625 656.41015625 430 615 430 c 0
 573.58984375 430 540 396.41015625 540 355 c 0
480.043945312 587.268554688 m 1
 451.948242188 576.735351562 l 1
 546.948242188 323.737304688 l 1
 575.043945312 334.270507812 l 1
 480.043945312 587.268554688 l 1
177.998046875 -12.001953125 m 1
 177.998046875 -42.001953125 l 1
 345.33203125 -42.001953125 283.146484375 -42.12109375 284.208984375 -42.12109375 c 0
 310.34375 -42.12109375 424.075195312 -32.203125 533.119140625 117.165039062 c 0
 652.23828125 280.330078125 677.176757812 312.239257812 677.176757812 312.239257812 c 1
 676.825195312 311.771484375 806.180664062 491.243164062 806.180664062 491.243164062 c 1
 781.845703125 508.782226562 l 2
 781.827148438 508.756835938 653.174804688 330.220703125 652.823242188 329.752929688 c 0
 652.59375 329.458984375 627.926757812 297.903320312 508.873046875 134.827148438 c 0
 405.938476562 -6.171875 302.919921875 -12.12109375 284.208984375 -12.12109375 c 0
 283.146484375 -12.12109375 347.020507812 -12.001953125 177.998046875 -12.001953125 c 1
EndSplineSet
Validated: 37
EndChar

StartChar: x
Encoding: 120 120 49
Width: 1000
HStem: -22.002 30<120.087 185.909 801.089 866.915> 97.998 30<120.087 185.909> 397.002 30<524.091 589.913> 437.002 86G<317.57 342.43 702.57 727.43> 527.002 30<297.089 362.911> 592.002 30<682.089 747.911>
VStem: 77.998 30<20.0866 85.9095> 197.998 30<48.7678 85.9095> 210 17.998<17.998 47.998> 255 30<449.091 514.913> 375 30<449.091 514.913> 482.002 30<334.775 384.913> 640 30<514.091 579.913> 759.004 30<48.7677 85.9094 505.048 581.086> 759.004 17.998<17.998 47.998> 879.004 30<20.0866 85.9095>
LayerCount: 2
Fore
SplineSet
512.001953125 352.001953125 m 0xfe79
 512.001953125 376.861328125 532.142578125 397.001953125 557.001953125 397.001953125 c 0
 581.861328125 397.001953125 602.001953125 376.861328125 602.001953125 352.001953125 c 0
 602.001953125 327.142578125 581.861328125 307.001953125 557.001953125 307.001953125 c 0
 532.142578125 307.001953125 512.001953125 327.142578125 512.001953125 352.001953125 c 0xfe79
482.001953125 352.001953125 m 0
 482.001953125 310.591796875 515.591796875 277.001953125 557.001953125 277.001953125 c 0
 598.412109375 277.001953125 632.001953125 310.591796875 632.001953125 352.001953125 c 0
 632.001953125 393.412109375 598.412109375 427.001953125 557.001953125 427.001953125 c 0
 515.591796875 427.001953125 482.001953125 393.412109375 482.001953125 352.001953125 c 0
670 547.001953125 m 0
 670 571.861328125 690.140625 592.001953125 715 592.001953125 c 0
 739.859375 592.001953125 760 571.861328125 760 547.001953125 c 0
 760 522.142578125 739.859375 502.001953125 715 502.001953125 c 0
 690.140625 502.001953125 670 522.142578125 670 547.001953125 c 0
640 547.001953125 m 0
 640 505.591796875 673.58984375 472.001953125 715 472.001953125 c 0
 756.41015625 472.001953125 790 505.591796875 790 547.001953125 c 0
 790 588.412109375 756.41015625 622.001953125 715 622.001953125 c 0
 673.58984375 622.001953125 640 588.412109375 640 547.001953125 c 0
285 482.001953125 m 0
 285 506.861328125 305.140625 527.001953125 330 527.001953125 c 0
 354.859375 527.001953125 375 506.861328125 375 482.001953125 c 0
 375 457.142578125 354.859375 437.001953125 330 437.001953125 c 0
 305.140625 437.001953125 285 457.142578125 285 482.001953125 c 0
255 482.001953125 m 0
 255 440.591796875 288.58984375 407.001953125 330 407.001953125 c 0
 371.41015625 407.001953125 405 440.591796875 405 482.001953125 c 0
 405 523.412109375 371.41015625 557.001953125 330 557.001953125 c 0
 288.58984375 557.001953125 255 523.412109375 255 482.001953125 c 0
789.00390625 52.998046875 m 0xfe7d
 789.00390625 77.859375 809.134765625 97.998046875 834.00390625 97.998046875 c 0
 858.86328125 97.998046875 879.00390625 77.857421875 879.00390625 52.998046875 c 0
 879.00390625 28.138671875 858.86328125 7.998046875 834.00390625 7.998046875 c 0
 809.134765625 7.998046875 789.00390625 28.13671875 789.00390625 52.998046875 c 0xfe7d
759.00390625 52.998046875 m 0
 759.00390625 11.58984375 792.583984375 -22.001953125 834.00390625 -22.001953125 c 0
 875.4140625 -22.001953125 909.00390625 11.587890625 909.00390625 52.998046875 c 0
 909.00390625 94.408203125 875.4140625 127.998046875 834.00390625 127.998046875 c 0
 792.583984375 127.998046875 759.00390625 94.40625 759.00390625 52.998046875 c 0
107.998046875 52.998046875 m 0
 107.998046875 77.857421875 128.138671875 97.998046875 152.998046875 97.998046875 c 0
 177.857421875 97.998046875 197.998046875 77.857421875 197.998046875 52.998046875 c 0xff79
 197.998046875 28.138671875 177.857421875 7.998046875 152.998046875 7.998046875 c 0
 128.138671875 7.998046875 107.998046875 28.138671875 107.998046875 52.998046875 c 0
77.998046875 52.998046875 m 0
 77.998046875 11.587890625 111.587890625 -22.001953125 152.998046875 -22.001953125 c 0
 194.408203125 -22.001953125 227.998046875 11.587890625 227.998046875 52.998046875 c 0
 227.998046875 94.408203125 194.408203125 127.998046875 152.998046875 127.998046875 c 0
 111.587890625 127.998046875 77.998046875 94.408203125 77.998046875 52.998046875 c 0
210 47.998046875 m 1xfefb
 210 17.998046875 l 1
 777.001953125 17.998046875 l 1
 777.001953125 47.998046875 l 1
 210 47.998046875 l 1xfefb
853.525390625 93.9951171875 m 1
 853.525390625 93.9951171875 868.5 119.990234375 868.466796875 120.008789062 c 0
 309.47265625 442.010742188 309.47265625 442.010742188 309.47265625 442.010742188 c 2
 309.47265625 442.010742188 294.498046875 416.015625 294.53125 415.997070312 c 0
 853.525390625 93.9951171875 853.525390625 93.9951171875 853.525390625 93.9951171875 c 1
774.646484375 501.548828125 m 1
 751.36328125 520.459960938 l 1
 591.349609375 323.451171875 l 1
 614.6328125 304.540039062 l 1
 774.646484375 501.548828125 l 1
EndSplineSet
Validated: 5
EndChar

StartChar: y
Encoding: 121 121 50
Width: 800
Flags: HW
LayerCount: 2
Fore
SplineSet
257.953125 200.98046875 m 1
 257.953125 392.973632812 l 1
 833.931640625 392.973632812 l 1
 833.931640625 200.98046875 l 1
 257.953125 200.98046875 l 1
EndSplineSet
Validated: 524289
EndChar

StartChar: z
Encoding: 122 122 51
Width: 1000
Flags: H
LayerCount: 2
Fore
SplineSet
450 47.998046875 m 0
 450 72.857421875 470.140625 92.998046875 495 92.998046875 c 0
 519.859375 92.998046875 540 72.857421875 540 47.998046875 c 0
 540 23.138671875 519.859375 2.998046875 495 2.998046875 c 0
 470.140625 2.998046875 450 23.138671875 450 47.998046875 c 0
420 47.998046875 m 0
 420 6.587890625 453.58984375 -27.001953125 495 -27.001953125 c 0
 536.41015625 -27.001953125 570 6.587890625 570 47.998046875 c 0
 570 89.408203125 536.41015625 122.998046875 495 122.998046875 c 0
 453.58984375 122.998046875 420 89.408203125 420 47.998046875 c 0
767.998046875 535 m 0
 767.998046875 559.859375 788.138671875 580 812.998046875 580 c 0
 837.857421875 580 857.998046875 559.859375 857.998046875 535 c 0
 857.998046875 510.140625 837.857421875 490 812.998046875 490 c 0
 788.138671875 490 767.998046875 510.140625 767.998046875 535 c 0
737.998046875 535 m 0
 737.998046875 493.58984375 771.587890625 460 812.998046875 460 c 0
 854.408203125 460 887.998046875 493.58984375 887.998046875 535 c 0
 887.998046875 576.41015625 854.408203125 610 812.998046875 610 c 0
 771.587890625 610 737.998046875 576.41015625 737.998046875 535 c 0
132.998046875 535 m 0
 132.998046875 559.859375 153.138671875 580 177.998046875 580 c 0
 202.857421875 580 222.998046875 559.859375 222.998046875 535 c 0
 222.998046875 510.140625 202.857421875 490 177.998046875 490 c 0
 153.138671875 490 132.998046875 510.140625 132.998046875 535 c 0
102.998046875 535 m 0
 102.998046875 493.58984375 136.587890625 460 177.998046875 460 c 0
 219.408203125 460 252.998046875 493.58984375 252.998046875 535 c 0
 252.998046875 576.41015625 219.408203125 610 177.998046875 610 c 0
 136.587890625 610 102.998046875 576.41015625 102.998046875 535 c 0
450 505.99609375 m 0
 450 530.865234375 470.138671875 550.99609375 495 550.99609375 c 0
 519.861328125 550.99609375 540 530.865234375 540 505.99609375 c 0
 540 481.13671875 519.859375 460.99609375 495 460.99609375 c 0
 470.140625 460.99609375 450 481.13671875 450 505.99609375 c 0
420 505.99609375 m 0
 420 464.5859375 453.58984375 430.99609375 495 430.99609375 c 0
 536.41015625 430.99609375 570 464.5859375 570 505.99609375 c 0
 570 547.416015625 536.408203125 580.99609375 495 580.99609375 c 0
 453.591796875 580.99609375 420 547.416015625 420 505.99609375 c 0
510 445.99609375 m 1
 480 445.99609375 l 1
 480 107.998046875 l 1
 510 107.998046875 l 1
 510 445.99609375 l 1
236.658203125 558.944335938 m 1
 236.658203125 558.944335938 239.30859375 529.060546875 239.337890625 529.063476562 c 0
 814.337890625 580.059570312 814.337890625 580.059570312 814.337890625 580.059570312 c 1
 814.337890625 580.059570312 811.6875 609.943359375 811.658203125 609.940429688 c 0
 236.658203125 558.944335938 236.658203125 558.944335938 236.658203125 558.944335938 c 1
EndSplineSet
Validated: 5
EndChar

StartChar: zero
Encoding: 48 48 52
Width: 1000
Flags: H
LayerCount: 2
Fore
SplineSet
13 9 m 1
 13 585 l 1
 205 585 l 1
 205 201 l 1
 397 201 l 1
 397 585 l 1
 973 585 l 1
 973 9 l 1
 781 9 l 1
 781 393 l 1
 589 393 l 1
 589 9 l 1
 13 9 l 1
493 585 m 0
 440 585 397 628 397 681 c 0
 397 734 440 777 493 777 c 0
 546 777 589 734 589 681 c 0
 589 628 546 585 493 585 c 0
493 609 m 0
 533 609 565 641 565 681 c 0
 565 721 533 753 493 753 c 0
 453 753 421 721 421 681 c 0
 421 641 454 609 493 609 c 0
EndSplineSet
Validated: 5
EndChar

StartChar: one
Encoding: 49 49 53
Width: 400
Flags: HW
HStem: 201 24<-46.9929 31.1965> 369 24<-47.2141 31.1965>
VStem: -104.009 24<257.795 336.205> 63.9912 24<257.795 336.205>
LayerCount: 2
Fore
SplineSet
464.0234375 200.98046875 m 0
 411.083007812 200.98046875 367.9453125 243.954101562 367.9453125 297.05859375 c 0
 367.9453125 350.163085938 410.918945312 393.137695312 464.0234375 393.137695312 c 0
 517.12890625 393.137695312 560.102539062 350.163085938 560.102539062 297.05859375 c 0
 560.102539062 243.954101562 517.12890625 200.98046875 464.0234375 200.98046875 c 0
464.0234375 225 m 0
 504.056640625 225 536.083007812 257.026367188 536.083007812 297.05859375 c 0
 536.083007812 337.091796875 504.056640625 369.1171875 464.0234375 369.1171875 c 0
 423.991210938 369.1171875 391.96484375 337.091796875 391.96484375 297.05859375 c 0
 392.12890625 257.026367188 424.971679688 225 464.0234375 225 c 0
EndSplineSet
Validated: 524289
EndChar

StartChar: two
Encoding: 50 50 54
Width: 400
Flags: HW
LayerCount: 2
Fore
SplineSet
464.0234375 584.967773438 m 0
 411.083007812 584.967773438 367.9453125 627.94140625 367.9453125 681.045898438 c 0
 367.9453125 734.150390625 410.918945312 777.124023438 464.0234375 777.124023438 c 0
 517.12890625 777.124023438 560.102539062 733.987304688 560.102539062 681.045898438 c 0
 560.102539062 627.94140625 517.12890625 584.967773438 464.0234375 584.967773438 c 0
464.0234375 -183.006835938 m 0
 411.083007812 -183.006835938 367.9453125 -140.032226562 367.9453125 -86.927734375 c 0
 367.9453125 -33.8232421875 410.918945312 9.150390625 464.0234375 9.150390625 c 0
 517.12890625 9.150390625 560.102539062 -33.8232421875 560.102539062 -86.927734375 c 0
 560.102539062 -140.032226562 517.12890625 -183.006835938 464.0234375 -183.006835938 c 0
464.0234375 608.987304688 m 0
 504.056640625 608.987304688 536.083007812 641.012695312 536.083007812 681.045898438 c 0
 536.083007812 721.078125 504.056640625 753.104492188 464.0234375 753.104492188 c 0
 423.991210938 753.104492188 391.96484375 721.078125 391.96484375 681.045898438 c 0
 391.96484375 641.012695312 424.971679688 608.987304688 464.0234375 608.987304688 c 0
464.0234375 -158.987304688 m 0
 504.056640625 -158.987304688 536.083007812 -126.9609375 536.083007812 -86.927734375 c 0
 536.083007812 -46.8955078125 504.056640625 -14.869140625 464.0234375 -14.869140625 c 0
 423.991210938 -14.869140625 391.96484375 -46.8955078125 391.96484375 -86.927734375 c 0
 392.12890625 -126.9609375 424.971679688 -158.987304688 464.0234375 -158.987304688 c 0
EndSplineSet
Validated: 524289
EndChar

StartChar: three
Encoding: 51 51 55
Width: 400
Flags: HW
LayerCount: 2
Fore
SplineSet
329.946289062 8.9873046875 m 1
 329.946289062 584.967773438 l 1
 521.939453125 584.967773438 l 1
 521.939453125 8.9873046875 l 1
 329.946289062 8.9873046875 l 1
EndSplineSet
Validated: 524289
EndChar

StartChar: four
Encoding: 52 52 56
Width: 400
Flags: HW
LayerCount: 2
Fore
SplineSet
493.609375 584.967773438 m 0
 440.668945312 584.967773438 397.53125 627.94140625 397.53125 681.045898438 c 0
 397.53125 734.150390625 440.504882812 777.124023438 493.609375 777.124023438 c 0
 546.71484375 777.124023438 589.688476562 734.150390625 589.688476562 681.045898438 c 0
 589.688476562 627.94140625 546.71484375 584.967773438 493.609375 584.967773438 c 0
397.694335938 8.9873046875 m 1
 397.694335938 584.967773438 l 1
 589.688476562 584.967773438 l 1
 589.688476562 8.9873046875 l 1
 397.694335938 8.9873046875 l 1
493.609375 608.987304688 m 0
 533.642578125 608.987304688 565.668945312 641.012695312 565.668945312 681.045898438 c 0
 565.668945312 721.078125 533.642578125 753.104492188 493.609375 753.104492188 c 0
 453.577148438 753.104492188 421.55078125 721.078125 421.55078125 681.045898438 c 0
 421.55078125 641.012695312 454.557617188 608.987304688 493.609375 608.987304688 c 0
EndSplineSet
Validated: 524293
EndChar

StartChar: five
Encoding: 53 53 57
Width: 400
Flags: HW
LayerCount: 2
Fore
SplineSet
426.024414062 584.967773438 m 0
 373.083007812 584.967773438 329.9453125 627.94140625 329.9453125 681.045898438 c 0
 329.9453125 734.150390625 372.919921875 777.124023438 426.024414062 777.124023438 c 0
 479.12890625 777.124023438 522.102539062 733.987304688 522.102539062 681.045898438 c 0
 522.102539062 627.94140625 479.12890625 584.967773438 426.024414062 584.967773438 c 0
330.109375 8.9873046875 m 1
 330.109375 584.967773438 l 1
 522.102539062 584.967773438 l 1
 522.102539062 8.9873046875 l 1
 330.109375 8.9873046875 l 1
426.024414062 -183.006835938 m 0
 373.083007812 -183.006835938 329.9453125 -140.032226562 329.9453125 -86.927734375 c 0
 329.9453125 -33.8232421875 372.919921875 9.150390625 426.024414062 9.150390625 c 0
 479.12890625 9.150390625 522.102539062 -33.8232421875 522.102539062 -86.927734375 c 0
 522.102539062 -140.032226562 479.12890625 -183.006835938 426.024414062 -183.006835938 c 0
426.024414062 608.987304688 m 0
 466.056640625 608.987304688 498.083007812 641.012695312 498.083007812 681.045898438 c 0
 498.083007812 721.078125 466.056640625 753.104492188 426.024414062 753.104492188 c 0
 385.991210938 753.104492188 353.96484375 721.078125 353.96484375 681.045898438 c 0
 353.96484375 641.012695312 386.971679688 608.987304688 426.024414062 608.987304688 c 0
426.024414062 -158.987304688 m 0
 466.056640625 -158.987304688 498.083007812 -126.9609375 498.083007812 -86.927734375 c 0
 498.083007812 -46.8955078125 466.056640625 -14.869140625 426.024414062 -14.869140625 c 0
 385.991210938 -14.869140625 353.96484375 -46.8955078125 353.96484375 -86.927734375 c 0
 354.12890625 -126.9609375 386.971679688 -158.987304688 426.024414062 -158.987304688 c 0
EndSplineSet
Validated: 524293
EndChar

StartChar: six
Encoding: 54 54 58
Width: 800
Flags: HW
LayerCount: 2
Fore
SplineSet
237.953125 8.9873046875 m 1
 237.953125 584.967773438 l 1
 429.9453125 584.967773438 l 1
 429.9453125 200.98046875 l 1
 621.939453125 200.98046875 l 1
 621.939453125 584.967773438 l 1
 813.93359375 584.967773438 l 1
 813.93359375 8.9873046875 l 1
 237.953125 8.9873046875 l 1
EndSplineSet
Validated: 524289
EndChar

StartChar: seven
Encoding: 55 55 59
Width: 900
Flags: HW
LayerCount: 2
Fore
SplineSet
287.953125 8.9873046875 m 1
 287.953125 584.967773438 l 1
 479.9453125 584.967773438 l 1
 479.9453125 200.98046875 l 1
 671.939453125 200.98046875 l 1
 671.939453125 584.967773438 l 1
 863.93359375 584.967773438 l 1
 863.93359375 8.9873046875 l 1
 287.953125 8.9873046875 l 1
767.85546875 584.967773438 m 0
 714.9140625 584.967773438 671.775390625 627.94140625 671.775390625 681.045898438 c 0
 671.775390625 734.150390625 714.75 777.124023438 767.85546875 777.124023438 c 0
 820.958984375 777.124023438 863.93359375 734.150390625 863.93359375 681.045898438 c 0
 863.93359375 627.94140625 820.958984375 584.967773438 767.85546875 584.967773438 c 0
767.85546875 608.987304688 m 0
 807.88671875 608.987304688 839.9140625 641.012695312 839.9140625 681.045898438 c 0
 839.9140625 721.078125 807.88671875 753.104492188 767.85546875 753.104492188 c 0
 727.822265625 753.104492188 695.794921875 721.078125 695.794921875 681.045898438 c 0
 695.794921875 641.012695312 728.966796875 608.987304688 767.85546875 608.987304688 c 0
EndSplineSet
Validated: 524293
EndChar

StartChar: eight
Encoding: 56 56 60
Width: 800
Flags: HW
LayerCount: 2
Fore
SplineSet
220.366210938 8.9873046875 m 1
 220.366210938 584.967773438 l 1
 412.360351562 584.967773438 l 1
 412.360351562 200.98046875 l 1
 604.353515625 200.98046875 l 1
 604.353515625 584.967773438 l 1
 796.346679688 584.967773438 l 1
 796.346679688 8.9873046875 l 1
 220.366210938 8.9873046875 l 1
700.268554688 584.967773438 m 0
 647.327148438 584.967773438 604.190429688 627.94140625 604.190429688 681.045898438 c 0
 604.190429688 734.150390625 647.1640625 777.124023438 700.268554688 777.124023438 c 0
 753.373046875 777.124023438 796.346679688 733.987304688 796.346679688 681.045898438 c 0
 796.346679688 628.104492188 753.373046875 584.967773438 700.268554688 584.967773438 c 0
700.268554688 -183.006835938 m 0
 647.327148438 -183.006835938 604.190429688 -140.032226562 604.190429688 -86.927734375 c 0
 604.190429688 -33.8232421875 647.1640625 9.150390625 700.268554688 9.150390625 c 0
 753.373046875 9.150390625 796.346679688 -33.8232421875 796.346679688 -86.927734375 c 0
 796.346679688 -140.032226562 753.373046875 -183.006835938 700.268554688 -183.006835938 c 0
700.268554688 608.987304688 m 0
 740.301757812 608.987304688 772.327148438 641.012695312 772.327148438 681.045898438 c 0
 772.327148438 721.078125 740.301757812 753.104492188 700.268554688 753.104492188 c 0
 660.236328125 753.104492188 628.209960938 721.078125 628.209960938 681.045898438 c 0
 628.209960938 641.012695312 661.379882812 608.987304688 700.268554688 608.987304688 c 0
700.268554688 -158.987304688 m 0
 740.301757812 -158.987304688 772.327148438 -126.9609375 772.327148438 -86.927734375 c 0
 772.327148438 -46.8955078125 740.301757812 -14.869140625 700.268554688 -14.869140625 c 0
 660.236328125 -14.869140625 628.209960938 -46.8955078125 628.209960938 -86.927734375 c 0
 628.373046875 -126.9609375 661.379882812 -158.987304688 700.268554688 -158.987304688 c 0
EndSplineSet
Validated: 524293
EndChar

StartChar: nine
Encoding: 57 57 61
Width: 1000
Flags: HW
LayerCount: 2
Fore
SplineSet
20 9 m 1
 20 585 l 1
 212 585 l 1
 212 201 l 1
 404 201 l 1
 404 585 l 1
 980 585 l 1
 980 9 l 1
 788 9 l 1
 788 393 l 1
 596 393 l 1
 596 9 l 1
 20 9 l 1
EndSplineSet
Validated: 1
EndChar

StartChar: space
Encoding: 32 32 62
Width: 200
Flags: HW
LayerCount: 2
Back
SplineSet
869.28125 -200 m 1
 1294.1171875 -200 l 1
 1294.1171875 800 l 1
 869.28125 800 l 1
 869.28125 -200 l 1
EndSplineSet
Fore
Validated: 1
EndChar
